<svg width="930" height="288" viewBox="0 0 930 288" fill="none" xmlns="http://www.w3.org/2000/svg">
<g clip-path="url(#clip0_1627_13269)">
<rect width="930" height="288" fill="url(#paint0_radial_1627_13269)"/>
<path opacity="0.55" d="M889.484 307.4L861.203 279.119C859.067 276.983 855.367 277.22 852.94 279.647L821.896 310.691C819.469 313.118 815.769 313.355 813.633 311.219L786.319 283.905C784.183 281.769 780.484 282.005 778.056 284.433L747.013 315.477C744.585 317.904 740.886 318.141 738.75 316.005L711.436 288.691C709.3 286.555 705.6 286.791 703.173 289.219L672.129 320.262C669.701 322.69 666.002 322.926 663.866 320.79L636.552 293.476C634.416 291.34 630.717 291.577 628.289 294.004L596.147 326.147M929.318 267.565L901.037 239.285C898.902 237.149 895.202 237.385 892.774 239.813L861.731 270.856C859.303 273.284 855.604 273.52 853.468 271.384L826.154 244.07C824.018 241.934 820.318 242.171 817.891 244.598L786.847 275.642C784.42 278.069 780.72 278.306 778.584 276.17L751.27 248.856C749.134 246.72 749.371 243.021 751.798 240.593L782.842 209.549C785.27 207.122 788.969 206.885 791.105 209.021L818.902 236.819L819.169 237.009C821.216 238.465 824.214 238.084 826.26 236.105L829.979 232.511L857.726 204.764C860.153 202.336 860.39 198.637 858.254 196.501L830.94 169.187C828.804 167.051 825.104 167.287 822.677 169.715L791.358 201.033L790.254 202.015C788.42 203.645 785.809 203.726 784.282 202.198L781.315 199.232M784.337 202.253L756.056 173.972C753.92 171.836 750.221 172.073 747.793 174.5L716.749 205.544C714.322 207.972 710.622 208.208 708.486 206.072L681.172 178.758C679.036 176.622 675.337 176.859 672.909 179.286L641.866 210.33C639.438 212.757 635.739 212.994 633.603 210.858L606.289 183.544C604.153 181.408 600.453 181.644 598.026 184.072L566.982 215.115C564.555 217.543 560.855 217.779 558.719 215.643L531.405 188.329C529.269 186.194 525.57 186.43 523.142 188.858L491 221" stroke="url(#paint1_linear_1627_13269)" stroke-opacity="0.8"/>
<line x1="110.354" y1="-0.646447" x2="-3.64645" y2="113.354" stroke="white" stroke-opacity="0.14"/>
<line x1="403.497" y1="-0.0582325" x2="438.224" y2="296.087" stroke="white" stroke-opacity="0.14"/>
<line x1="133.428" y1="0.257818" x2="0.428406" y2="221.258" stroke="white" stroke-opacity="0.14"/>
</g>
<defs>
<radialGradient id="paint0_radial_1627_13269" cx="0" cy="0" r="1" gradientUnits="userSpaceOnUse" gradientTransform="translate(525.183 288) rotate(-90) scale(288 859.866)">
<stop stop-color="#45474C"/>
<stop offset="0.555791" stop-color="#121928"/>
</radialGradient>
<linearGradient id="paint1_linear_1627_13269" x1="929.318" y1="267.565" x2="537.657" y2="201.419" gradientUnits="userSpaceOnUse">
<stop offset="0.0819437" stop-color="#F7F7F7"/>
<stop offset="0.208333" stop-color="#12C2E9"/>
<stop offset="0.526042" stop-color="#C471ED"/>
<stop offset="0.9375" stop-color="#F64F59"/>
</linearGradient>
<clipPath id="clip0_1627_13269">
<rect width="930" height="288" fill="white"/>
</clipPath>
</defs>
</svg>
