<svg width="608" height="804" viewBox="0 0 608 804" fill="none" xmlns="http://www.w3.org/2000/svg">
<path d="M7.05117 2.5265L3.52559 -0.999962L0 2.5265L3.52559 6.05295L7.05117 2.5265Z" fill="#726E6E" fill-opacity="0.23"/>
<path d="M51.3707 2.5265L47.8452 -0.999962L44.3196 2.5265L47.8452 6.05295L51.3707 2.5265Z" fill="#726E6E" fill-opacity="0.23"/>
<path d="M95.6899 2.5265L92.1643 -0.999962L88.6387 2.5265L92.1643 6.05295L95.6899 2.5265Z" fill="#726E6E" fill-opacity="0.23"/>
<path d="M140.009 2.5265L136.484 -0.999962L132.958 2.5265L136.484 6.05295L140.009 2.5265Z" fill="#726E6E" fill-opacity="0.23"/>
<path d="M184.329 2.5265L180.803 -0.999962L177.278 2.5265L180.803 6.05295L184.329 2.5265Z" fill="#726E6E" fill-opacity="0.23"/>
<path d="M228.648 2.5265L225.123 -0.999962L221.597 2.5265L225.123 6.05295L228.648 2.5265Z" fill="#726E6E" fill-opacity="0.23"/>
<path d="M272.968 2.5265L269.442 -0.999962L265.916 2.5265L269.442 6.05295L272.968 2.5265Z" fill="#726E6E" fill-opacity="0.23"/>
<path d="M317.287 2.5265L313.761 -0.999962L310.236 2.5265L313.761 6.05295L317.287 2.5265Z" fill="#726E6E" fill-opacity="0.23"/>
<path d="M361.606 2.5265L358.081 -0.999962L354.555 2.5265L358.081 6.05295L361.606 2.5265Z" fill="#726E6E" fill-opacity="0.23"/>
<path d="M405.926 2.5265L402.4 -0.999962L398.875 2.5265L402.4 6.05295L405.926 2.5265Z" fill="#726E6E" fill-opacity="0.23"/>
<path d="M450.245 2.5265L446.719 -0.999962L443.194 2.5265L446.719 6.05295L450.245 2.5265Z" fill="#726E6E" fill-opacity="0.23"/>
<path d="M494.565 2.5265L491.039 -0.999962L487.513 2.5265L491.039 6.05295L494.565 2.5265Z" fill="#726E6E" fill-opacity="0.23"/>
<path d="M538.884 2.5265L535.359 -0.999962L531.833 2.5265L535.359 6.05295L538.884 2.5265Z" fill="#726E6E" fill-opacity="0.23"/>
<path d="M583.203 2.5265L579.678 -0.999962L576.152 2.5265L579.678 6.05295L583.203 2.5265Z" fill="#726E6E" fill-opacity="0.23"/>
<path d="M627.523 2.5265L623.997 -0.999962L620.472 2.5265L623.997 6.05295L627.523 2.5265Z" fill="#726E6E" fill-opacity="0.23"/>
<path d="M671.842 2.5265L668.316 -0.999962L664.791 2.5265L668.316 6.05295L671.842 2.5265Z" fill="#726E6E" fill-opacity="0.23"/>
<path d="M716.161 2.5265L712.636 -0.999962L709.11 2.5265L712.636 6.05295L716.161 2.5265Z" fill="#726E6E" fill-opacity="0.23"/>
<path d="M760.481 2.5265L756.955 -0.999962L753.43 2.5265L756.955 6.05295L760.481 2.5265Z" fill="#726E6E" fill-opacity="0.23"/>
<path d="M804.8 2.5265L801.275 -0.999962L797.749 2.5265L801.275 6.05295L804.8 2.5265Z" fill="#726E6E" fill-opacity="0.23"/>
<path d="M7.05117 46.857L3.52559 43.3306L0 46.857L3.52559 50.3835L7.05117 46.857Z" fill="#726E6E" fill-opacity="0.23"/>
<path d="M51.3707 46.857L47.8452 43.3306L44.3196 46.857L47.8452 50.3835L51.3707 46.857Z" fill="#726E6E" fill-opacity="0.23"/>
<path d="M95.6899 46.857L92.1643 43.3306L88.6387 46.857L92.1643 50.3835L95.6899 46.857Z" fill="#726E6E" fill-opacity="0.23"/>
<path d="M140.009 46.857L136.484 43.3306L132.958 46.857L136.484 50.3835L140.009 46.857Z" fill="#726E6E" fill-opacity="0.23"/>
<path d="M184.329 46.857L180.803 43.3306L177.278 46.857L180.803 50.3835L184.329 46.857Z" fill="#726E6E" fill-opacity="0.23"/>
<path d="M228.648 46.857L225.123 43.3306L221.597 46.857L225.123 50.3835L228.648 46.857Z" fill="#726E6E" fill-opacity="0.23"/>
<path d="M272.968 46.857L269.442 43.3306L265.916 46.857L269.442 50.3835L272.968 46.857Z" fill="#726E6E" fill-opacity="0.23"/>
<path d="M317.287 46.857L313.761 43.3306L310.236 46.857L313.761 50.3835L317.287 46.857Z" fill="#726E6E" fill-opacity="0.23"/>
<path d="M361.606 46.857L358.081 43.3306L354.555 46.857L358.081 50.3835L361.606 46.857Z" fill="#726E6E" fill-opacity="0.23"/>
<path d="M405.926 46.857L402.4 43.3306L398.875 46.857L402.4 50.3835L405.926 46.857Z" fill="#726E6E" fill-opacity="0.23"/>
<path d="M450.245 46.857L446.719 43.3306L443.194 46.857L446.719 50.3835L450.245 46.857Z" fill="#726E6E" fill-opacity="0.23"/>
<path d="M494.565 46.857L491.039 43.3306L487.513 46.857L491.039 50.3835L494.565 46.857Z" fill="#726E6E" fill-opacity="0.23"/>
<path d="M538.884 46.857L535.359 43.3306L531.833 46.857L535.359 50.3835L538.884 46.857Z" fill="#726E6E" fill-opacity="0.23"/>
<path d="M583.203 46.857L579.678 43.3306L576.152 46.857L579.678 50.3835L583.203 46.857Z" fill="#726E6E" fill-opacity="0.23"/>
<path d="M627.523 46.857L623.997 43.3306L620.472 46.857L623.997 50.3835L627.523 46.857Z" fill="#726E6E" fill-opacity="0.23"/>
<path d="M671.842 46.857L668.316 43.3306L664.791 46.857L668.316 50.3835L671.842 46.857Z" fill="#726E6E" fill-opacity="0.23"/>
<path d="M716.161 46.857L712.636 43.3306L709.11 46.857L712.636 50.3835L716.161 46.857Z" fill="#726E6E" fill-opacity="0.23"/>
<path d="M760.481 46.857L756.955 43.3306L753.43 46.857L756.955 50.3835L760.481 46.857Z" fill="#726E6E" fill-opacity="0.23"/>
<path d="M804.8 46.857L801.275 43.3306L797.749 46.857L801.275 50.3835L804.8 46.857Z" fill="#726E6E" fill-opacity="0.23"/>
<path d="M7.05117 91.1876L3.52559 87.6611L0 91.1876L3.52559 94.714L7.05117 91.1876Z" fill="#726E6E" fill-opacity="0.23"/>
<path d="M51.3707 91.1876L47.8452 87.6611L44.3196 91.1876L47.8452 94.714L51.3707 91.1876Z" fill="#726E6E" fill-opacity="0.23"/>
<path d="M95.6899 91.1876L92.1643 87.6611L88.6387 91.1876L92.1643 94.714L95.6899 91.1876Z" fill="#726E6E" fill-opacity="0.23"/>
<path d="M140.009 91.1876L136.484 87.6611L132.958 91.1876L136.484 94.714L140.009 91.1876Z" fill="#726E6E" fill-opacity="0.23"/>
<path d="M184.329 91.1876L180.803 87.6611L177.278 91.1876L180.803 94.714L184.329 91.1876Z" fill="#726E6E" fill-opacity="0.23"/>
<path d="M228.648 91.1876L225.123 87.6611L221.597 91.1876L225.123 94.714L228.648 91.1876Z" fill="#726E6E" fill-opacity="0.23"/>
<path d="M272.968 91.1876L269.442 87.6611L265.916 91.1876L269.442 94.714L272.968 91.1876Z" fill="#726E6E" fill-opacity="0.23"/>
<path d="M317.287 91.1876L313.761 87.6611L310.236 91.1876L313.761 94.714L317.287 91.1876Z" fill="#726E6E" fill-opacity="0.23"/>
<path d="M361.606 91.1876L358.081 87.6611L354.555 91.1876L358.081 94.714L361.606 91.1876Z" fill="#726E6E" fill-opacity="0.23"/>
<path d="M405.926 91.1876L402.4 87.6611L398.875 91.1876L402.4 94.714L405.926 91.1876Z" fill="#726E6E" fill-opacity="0.23"/>
<path d="M450.245 91.1876L446.719 87.6611L443.194 91.1876L446.719 94.714L450.245 91.1876Z" fill="#726E6E" fill-opacity="0.23"/>
<path d="M494.565 91.1876L491.039 87.6611L487.513 91.1876L491.039 94.714L494.565 91.1876Z" fill="#726E6E" fill-opacity="0.23"/>
<path d="M538.884 91.1876L535.359 87.6611L531.833 91.1876L535.359 94.714L538.884 91.1876Z" fill="#726E6E" fill-opacity="0.23"/>
<path d="M583.203 91.1876L579.678 87.6611L576.152 91.1876L579.678 94.714L583.203 91.1876Z" fill="#726E6E" fill-opacity="0.23"/>
<path d="M627.523 91.1876L623.997 87.6611L620.472 91.1876L623.997 94.714L627.523 91.1876Z" fill="#726E6E" fill-opacity="0.23"/>
<path d="M671.842 91.1876L668.316 87.6611L664.791 91.1876L668.316 94.714L671.842 91.1876Z" fill="#726E6E" fill-opacity="0.23"/>
<path d="M716.161 91.1876L712.636 87.6611L709.11 91.1876L712.636 94.714L716.161 91.1876Z" fill="#726E6E" fill-opacity="0.23"/>
<path d="M760.481 91.1876L756.955 87.6611L753.43 91.1876L756.955 94.714L760.481 91.1876Z" fill="#726E6E" fill-opacity="0.23"/>
<path d="M804.8 91.1876L801.275 87.6611L797.749 91.1876L801.275 94.714L804.8 91.1876Z" fill="#726E6E" fill-opacity="0.23"/>
<path d="M7.05117 135.518L3.52559 131.992L0 135.518L3.52559 139.045L7.05117 135.518Z" fill="#726E6E" fill-opacity="0.23"/>
<path d="M51.3707 135.518L47.8452 131.992L44.3196 135.518L47.8452 139.045L51.3707 135.518Z" fill="#726E6E" fill-opacity="0.23"/>
<path d="M95.6899 135.518L92.1643 131.992L88.6387 135.518L92.1643 139.045L95.6899 135.518Z" fill="#726E6E" fill-opacity="0.23"/>
<path d="M140.009 135.518L136.484 131.992L132.958 135.518L136.484 139.045L140.009 135.518Z" fill="#726E6E" fill-opacity="0.23"/>
<path d="M184.329 135.518L180.803 131.992L177.278 135.518L180.803 139.045L184.329 135.518Z" fill="#726E6E" fill-opacity="0.23"/>
<path d="M228.648 135.518L225.123 131.992L221.597 135.518L225.123 139.045L228.648 135.518Z" fill="#726E6E" fill-opacity="0.23"/>
<path d="M272.968 135.518L269.442 131.992L265.916 135.518L269.442 139.045L272.968 135.518Z" fill="#726E6E" fill-opacity="0.23"/>
<path d="M317.287 135.518L313.761 131.992L310.236 135.518L313.761 139.045L317.287 135.518Z" fill="#726E6E" fill-opacity="0.23"/>
<path d="M361.606 135.518L358.081 131.992L354.555 135.518L358.081 139.045L361.606 135.518Z" fill="#726E6E" fill-opacity="0.23"/>
<path d="M405.926 135.518L402.4 131.992L398.875 135.518L402.4 139.045L405.926 135.518Z" fill="#726E6E" fill-opacity="0.23"/>
<path d="M450.245 135.518L446.719 131.992L443.194 135.518L446.719 139.045L450.245 135.518Z" fill="#726E6E" fill-opacity="0.23"/>
<path d="M494.565 135.518L491.039 131.992L487.513 135.518L491.039 139.045L494.565 135.518Z" fill="#726E6E" fill-opacity="0.23"/>
<path d="M538.884 135.518L535.359 131.992L531.833 135.518L535.359 139.045L538.884 135.518Z" fill="#726E6E" fill-opacity="0.23"/>
<path d="M583.203 135.518L579.678 131.992L576.152 135.518L579.678 139.045L583.203 135.518Z" fill="#726E6E" fill-opacity="0.23"/>
<path d="M627.523 135.518L623.997 131.992L620.472 135.518L623.997 139.045L627.523 135.518Z" fill="#726E6E" fill-opacity="0.23"/>
<path d="M671.842 135.518L668.316 131.992L664.791 135.518L668.316 139.045L671.842 135.518Z" fill="#726E6E" fill-opacity="0.23"/>
<path d="M716.161 135.518L712.636 131.992L709.11 135.518L712.636 139.045L716.161 135.518Z" fill="#726E6E" fill-opacity="0.23"/>
<path d="M760.481 135.518L756.955 131.992L753.43 135.518L756.955 139.045L760.481 135.518Z" fill="#726E6E" fill-opacity="0.23"/>
<path d="M804.8 135.518L801.275 131.992L797.749 135.518L801.275 139.045L804.8 135.518Z" fill="#726E6E" fill-opacity="0.23"/>
<path d="M7.05117 179.848L3.52559 176.322L0 179.848L3.52559 183.375L7.05117 179.848Z" fill="#726E6E" fill-opacity="0.23"/>
<path d="M51.3707 179.848L47.8452 176.322L44.3196 179.848L47.8452 183.375L51.3707 179.848Z" fill="#726E6E" fill-opacity="0.23"/>
<path d="M95.6899 179.848L92.1643 176.322L88.6387 179.848L92.1643 183.375L95.6899 179.848Z" fill="#726E6E" fill-opacity="0.23"/>
<path d="M140.009 179.848L136.484 176.322L132.958 179.848L136.484 183.375L140.009 179.848Z" fill="#726E6E" fill-opacity="0.23"/>
<path d="M184.329 179.848L180.803 176.322L177.278 179.848L180.803 183.375L184.329 179.848Z" fill="#726E6E" fill-opacity="0.23"/>
<path d="M228.648 179.848L225.123 176.322L221.597 179.848L225.123 183.375L228.648 179.848Z" fill="#726E6E" fill-opacity="0.23"/>
<path d="M272.968 179.848L269.442 176.322L265.916 179.848L269.442 183.375L272.968 179.848Z" fill="#726E6E" fill-opacity="0.23"/>
<path d="M317.287 179.848L313.761 176.322L310.236 179.848L313.761 183.375L317.287 179.848Z" fill="#726E6E" fill-opacity="0.23"/>
<path d="M361.606 179.848L358.081 176.322L354.555 179.848L358.081 183.375L361.606 179.848Z" fill="#726E6E" fill-opacity="0.23"/>
<path d="M405.926 179.848L402.4 176.322L398.875 179.848L402.4 183.375L405.926 179.848Z" fill="#726E6E" fill-opacity="0.23"/>
<path d="M450.245 179.848L446.719 176.322L443.194 179.848L446.719 183.375L450.245 179.848Z" fill="#726E6E" fill-opacity="0.23"/>
<path d="M494.565 179.848L491.039 176.322L487.513 179.848L491.039 183.375L494.565 179.848Z" fill="#726E6E" fill-opacity="0.23"/>
<path d="M538.884 179.848L535.359 176.322L531.833 179.848L535.359 183.375L538.884 179.848Z" fill="#726E6E" fill-opacity="0.23"/>
<path d="M583.203 179.848L579.678 176.322L576.152 179.848L579.678 183.375L583.203 179.848Z" fill="#726E6E" fill-opacity="0.23"/>
<path d="M627.523 179.848L623.997 176.322L620.472 179.848L623.997 183.375L627.523 179.848Z" fill="#726E6E" fill-opacity="0.23"/>
<path d="M671.842 179.848L668.316 176.322L664.791 179.848L668.316 183.375L671.842 179.848Z" fill="#726E6E" fill-opacity="0.23"/>
<path d="M716.161 179.848L712.636 176.322L709.11 179.848L712.636 183.375L716.161 179.848Z" fill="#726E6E" fill-opacity="0.23"/>
<path d="M760.481 179.848L756.955 176.322L753.43 179.848L756.955 183.375L760.481 179.848Z" fill="#726E6E" fill-opacity="0.23"/>
<path d="M804.8 179.848L801.275 176.322L797.749 179.848L801.275 183.375L804.8 179.848Z" fill="#726E6E" fill-opacity="0.23"/>
<path d="M7.05117 224.179L3.52559 220.652L0 224.179L3.52559 227.705L7.05117 224.179Z" fill="#726E6E" fill-opacity="0.23"/>
<path d="M51.3707 224.179L47.8452 220.652L44.3196 224.179L47.8452 227.705L51.3707 224.179Z" fill="#726E6E" fill-opacity="0.23"/>
<path d="M95.6899 224.179L92.1643 220.652L88.6387 224.179L92.1643 227.705L95.6899 224.179Z" fill="#726E6E" fill-opacity="0.23"/>
<path d="M140.009 224.179L136.484 220.652L132.958 224.179L136.484 227.705L140.009 224.179Z" fill="#726E6E" fill-opacity="0.23"/>
<path d="M184.329 224.179L180.803 220.652L177.278 224.179L180.803 227.705L184.329 224.179Z" fill="#726E6E" fill-opacity="0.23"/>
<path d="M228.648 224.179L225.123 220.652L221.597 224.179L225.123 227.705L228.648 224.179Z" fill="#726E6E" fill-opacity="0.23"/>
<path d="M272.968 224.179L269.442 220.652L265.916 224.179L269.442 227.705L272.968 224.179Z" fill="#726E6E" fill-opacity="0.23"/>
<path d="M317.287 224.179L313.761 220.652L310.236 224.179L313.761 227.705L317.287 224.179Z" fill="#726E6E" fill-opacity="0.23"/>
<path d="M361.606 224.179L358.081 220.652L354.555 224.179L358.081 227.705L361.606 224.179Z" fill="#726E6E" fill-opacity="0.23"/>
<path d="M405.926 224.179L402.4 220.652L398.875 224.179L402.4 227.705L405.926 224.179Z" fill="#726E6E" fill-opacity="0.23"/>
<path d="M450.245 224.179L446.719 220.652L443.194 224.179L446.719 227.705L450.245 224.179Z" fill="#726E6E" fill-opacity="0.23"/>
<path d="M494.565 224.179L491.039 220.652L487.513 224.179L491.039 227.705L494.565 224.179Z" fill="#726E6E" fill-opacity="0.23"/>
<path d="M538.884 224.179L535.359 220.652L531.833 224.179L535.359 227.705L538.884 224.179Z" fill="#726E6E" fill-opacity="0.23"/>
<path d="M583.203 224.179L579.678 220.652L576.152 224.179L579.678 227.705L583.203 224.179Z" fill="#726E6E" fill-opacity="0.23"/>
<path d="M627.523 224.179L623.997 220.652L620.472 224.179L623.997 227.705L627.523 224.179Z" fill="#726E6E" fill-opacity="0.23"/>
<path d="M671.842 224.179L668.316 220.652L664.791 224.179L668.316 227.705L671.842 224.179Z" fill="#726E6E" fill-opacity="0.23"/>
<path d="M716.161 224.179L712.636 220.652L709.11 224.179L712.636 227.705L716.161 224.179Z" fill="#726E6E" fill-opacity="0.23"/>
<path d="M760.481 224.179L756.955 220.652L753.43 224.179L756.955 227.705L760.481 224.179Z" fill="#726E6E" fill-opacity="0.23"/>
<path d="M804.8 224.179L801.275 220.652L797.749 224.179L801.275 227.705L804.8 224.179Z" fill="#726E6E" fill-opacity="0.23"/>
<path d="M7.05117 268.509L3.52559 264.983L0 268.509L3.52559 272.036L7.05117 268.509Z" fill="#726E6E" fill-opacity="0.23"/>
<path d="M51.3707 268.509L47.8452 264.983L44.3196 268.509L47.8452 272.036L51.3707 268.509Z" fill="#726E6E" fill-opacity="0.23"/>
<path d="M95.6899 268.509L92.1643 264.983L88.6387 268.509L92.1643 272.036L95.6899 268.509Z" fill="#726E6E" fill-opacity="0.23"/>
<path d="M140.009 268.509L136.484 264.983L132.958 268.509L136.484 272.036L140.009 268.509Z" fill="#726E6E" fill-opacity="0.23"/>
<path d="M184.329 268.509L180.803 264.983L177.278 268.509L180.803 272.036L184.329 268.509Z" fill="#726E6E" fill-opacity="0.23"/>
<path d="M228.648 268.509L225.123 264.983L221.597 268.509L225.123 272.036L228.648 268.509Z" fill="#726E6E" fill-opacity="0.23"/>
<path d="M272.968 268.509L269.442 264.983L265.916 268.509L269.442 272.036L272.968 268.509Z" fill="#726E6E" fill-opacity="0.23"/>
<path d="M317.287 268.509L313.761 264.983L310.236 268.509L313.761 272.036L317.287 268.509Z" fill="#726E6E" fill-opacity="0.23"/>
<path d="M361.606 268.509L358.081 264.983L354.555 268.509L358.081 272.036L361.606 268.509Z" fill="#726E6E" fill-opacity="0.23"/>
<path d="M405.926 268.509L402.4 264.983L398.875 268.509L402.4 272.036L405.926 268.509Z" fill="#726E6E" fill-opacity="0.23"/>
<path d="M450.245 268.509L446.719 264.983L443.194 268.509L446.719 272.036L450.245 268.509Z" fill="#726E6E" fill-opacity="0.23"/>
<path d="M494.565 268.509L491.039 264.983L487.513 268.509L491.039 272.036L494.565 268.509Z" fill="#726E6E" fill-opacity="0.23"/>
<path d="M538.884 268.509L535.359 264.983L531.833 268.509L535.359 272.036L538.884 268.509Z" fill="#726E6E" fill-opacity="0.23"/>
<path d="M583.203 268.509L579.678 264.983L576.152 268.509L579.678 272.036L583.203 268.509Z" fill="#726E6E" fill-opacity="0.23"/>
<path d="M627.523 268.509L623.997 264.983L620.472 268.509L623.997 272.036L627.523 268.509Z" fill="#726E6E" fill-opacity="0.23"/>
<path d="M671.842 268.509L668.316 264.983L664.791 268.509L668.316 272.036L671.842 268.509Z" fill="#726E6E" fill-opacity="0.23"/>
<path d="M716.161 268.509L712.636 264.983L709.11 268.509L712.636 272.036L716.161 268.509Z" fill="#726E6E" fill-opacity="0.23"/>
<path d="M760.481 268.509L756.955 264.983L753.43 268.509L756.955 272.036L760.481 268.509Z" fill="#726E6E" fill-opacity="0.23"/>
<path d="M804.8 268.509L801.275 264.983L797.749 268.509L801.275 272.036L804.8 268.509Z" fill="#726E6E" fill-opacity="0.23"/>
<path d="M7.05117 312.839L3.52559 309.312L0 312.839L3.52559 316.365L7.05117 312.839Z" fill="#726E6E" fill-opacity="0.23"/>
<path d="M51.3707 312.839L47.8452 309.312L44.3196 312.839L47.8452 316.365L51.3707 312.839Z" fill="#726E6E" fill-opacity="0.23"/>
<path d="M95.6899 312.839L92.1643 309.312L88.6387 312.839L92.1643 316.365L95.6899 312.839Z" fill="#726E6E" fill-opacity="0.23"/>
<path d="M140.009 312.839L136.484 309.312L132.958 312.839L136.484 316.365L140.009 312.839Z" fill="#726E6E" fill-opacity="0.23"/>
<path d="M184.329 312.839L180.803 309.312L177.278 312.839L180.803 316.365L184.329 312.839Z" fill="#726E6E" fill-opacity="0.23"/>
<path d="M228.648 312.839L225.123 309.312L221.597 312.839L225.123 316.365L228.648 312.839Z" fill="#726E6E" fill-opacity="0.23"/>
<path d="M272.968 312.839L269.442 309.312L265.916 312.839L269.442 316.365L272.968 312.839Z" fill="#726E6E" fill-opacity="0.23"/>
<path d="M317.287 312.839L313.761 309.312L310.236 312.839L313.761 316.365L317.287 312.839Z" fill="#726E6E" fill-opacity="0.23"/>
<path d="M361.606 312.839L358.081 309.312L354.555 312.839L358.081 316.365L361.606 312.839Z" fill="#726E6E" fill-opacity="0.23"/>
<path d="M405.926 312.839L402.4 309.312L398.875 312.839L402.4 316.365L405.926 312.839Z" fill="#726E6E" fill-opacity="0.23"/>
<path d="M450.245 312.839L446.719 309.312L443.194 312.839L446.719 316.365L450.245 312.839Z" fill="#726E6E" fill-opacity="0.23"/>
<path d="M494.565 312.839L491.039 309.312L487.513 312.839L491.039 316.365L494.565 312.839Z" fill="#726E6E" fill-opacity="0.23"/>
<path d="M538.884 312.839L535.359 309.312L531.833 312.839L535.359 316.365L538.884 312.839Z" fill="#726E6E" fill-opacity="0.23"/>
<path d="M583.203 312.839L579.678 309.312L576.152 312.839L579.678 316.365L583.203 312.839Z" fill="#726E6E" fill-opacity="0.23"/>
<path d="M627.523 312.839L623.997 309.312L620.472 312.839L623.997 316.365L627.523 312.839Z" fill="#726E6E" fill-opacity="0.23"/>
<path d="M671.842 312.839L668.316 309.312L664.791 312.839L668.316 316.365L671.842 312.839Z" fill="#726E6E" fill-opacity="0.23"/>
<path d="M716.161 312.839L712.636 309.312L709.11 312.839L712.636 316.365L716.161 312.839Z" fill="#726E6E" fill-opacity="0.23"/>
<path d="M760.481 312.839L756.955 309.312L753.43 312.839L756.955 316.365L760.481 312.839Z" fill="#726E6E" fill-opacity="0.23"/>
<path d="M804.8 312.839L801.275 309.312L797.749 312.839L801.275 316.365L804.8 312.839Z" fill="#726E6E" fill-opacity="0.23"/>
<path d="M7.05117 357.17L3.52559 353.643L0 357.17L3.52559 360.696L7.05117 357.17Z" fill="#726E6E" fill-opacity="0.23"/>
<path d="M51.3707 357.17L47.8452 353.643L44.3196 357.17L47.8452 360.696L51.3707 357.17Z" fill="#726E6E" fill-opacity="0.23"/>
<path d="M95.6899 357.17L92.1643 353.643L88.6387 357.17L92.1643 360.696L95.6899 357.17Z" fill="#726E6E" fill-opacity="0.23"/>
<path d="M140.009 357.17L136.484 353.643L132.958 357.17L136.484 360.696L140.009 357.17Z" fill="#726E6E" fill-opacity="0.23"/>
<path d="M184.329 357.17L180.803 353.643L177.278 357.17L180.803 360.696L184.329 357.17Z" fill="#726E6E" fill-opacity="0.23"/>
<path d="M228.648 357.17L225.123 353.643L221.597 357.17L225.123 360.696L228.648 357.17Z" fill="#726E6E" fill-opacity="0.23"/>
<path d="M272.968 357.17L269.442 353.643L265.916 357.17L269.442 360.696L272.968 357.17Z" fill="#726E6E" fill-opacity="0.23"/>
<path d="M317.287 357.17L313.761 353.643L310.236 357.17L313.761 360.696L317.287 357.17Z" fill="#726E6E" fill-opacity="0.23"/>
<path d="M361.606 357.17L358.081 353.643L354.555 357.17L358.081 360.696L361.606 357.17Z" fill="#726E6E" fill-opacity="0.23"/>
<path d="M405.926 357.17L402.4 353.643L398.875 357.17L402.4 360.696L405.926 357.17Z" fill="#726E6E" fill-opacity="0.23"/>
<path d="M450.245 357.17L446.719 353.643L443.194 357.17L446.719 360.696L450.245 357.17Z" fill="#726E6E" fill-opacity="0.23"/>
<path d="M494.565 357.17L491.039 353.643L487.513 357.17L491.039 360.696L494.565 357.17Z" fill="#726E6E" fill-opacity="0.23"/>
<path d="M538.884 357.17L535.359 353.643L531.833 357.17L535.359 360.696L538.884 357.17Z" fill="#726E6E" fill-opacity="0.23"/>
<path d="M583.203 357.17L579.678 353.643L576.152 357.17L579.678 360.696L583.203 357.17Z" fill="#726E6E" fill-opacity="0.23"/>
<path d="M627.523 357.17L623.997 353.643L620.472 357.17L623.997 360.696L627.523 357.17Z" fill="#726E6E" fill-opacity="0.23"/>
<path d="M671.842 357.17L668.316 353.643L664.791 357.17L668.316 360.696L671.842 357.17Z" fill="#726E6E" fill-opacity="0.23"/>
<path d="M716.161 357.17L712.636 353.643L709.11 357.17L712.636 360.696L716.161 357.17Z" fill="#726E6E" fill-opacity="0.23"/>
<path d="M760.481 357.17L756.955 353.643L753.43 357.17L756.955 360.696L760.481 357.17Z" fill="#726E6E" fill-opacity="0.23"/>
<path d="M804.8 357.17L801.275 353.643L797.749 357.17L801.275 360.696L804.8 357.17Z" fill="#726E6E" fill-opacity="0.23"/>
<path d="M7.05117 401.5L3.52559 397.974L0 401.5L3.52559 405.027L7.05117 401.5Z" fill="#726E6E" fill-opacity="0.23"/>
<path d="M51.3707 401.5L47.8452 397.974L44.3196 401.5L47.8452 405.027L51.3707 401.5Z" fill="#726E6E" fill-opacity="0.23"/>
<path d="M95.6899 401.5L92.1643 397.974L88.6387 401.5L92.1643 405.027L95.6899 401.5Z" fill="#726E6E" fill-opacity="0.23"/>
<path d="M140.009 401.5L136.484 397.974L132.958 401.5L136.484 405.027L140.009 401.5Z" fill="#726E6E" fill-opacity="0.23"/>
<path d="M184.329 401.5L180.803 397.974L177.278 401.5L180.803 405.027L184.329 401.5Z" fill="#726E6E" fill-opacity="0.23"/>
<path d="M228.648 401.5L225.123 397.974L221.597 401.5L225.123 405.027L228.648 401.5Z" fill="#726E6E" fill-opacity="0.23"/>
<path d="M272.968 401.5L269.442 397.974L265.916 401.5L269.442 405.027L272.968 401.5Z" fill="#726E6E" fill-opacity="0.23"/>
<path d="M317.287 401.5L313.761 397.974L310.236 401.5L313.761 405.027L317.287 401.5Z" fill="#726E6E" fill-opacity="0.23"/>
<path d="M361.606 401.5L358.081 397.974L354.555 401.5L358.081 405.027L361.606 401.5Z" fill="#726E6E" fill-opacity="0.23"/>
<path d="M405.926 401.5L402.4 397.974L398.875 401.5L402.4 405.027L405.926 401.5Z" fill="#726E6E" fill-opacity="0.23"/>
<path d="M450.245 401.5L446.719 397.974L443.194 401.5L446.719 405.027L450.245 401.5Z" fill="#726E6E" fill-opacity="0.23"/>
<path d="M494.565 401.5L491.039 397.974L487.513 401.5L491.039 405.027L494.565 401.5Z" fill="#726E6E" fill-opacity="0.23"/>
<path d="M538.884 401.5L535.359 397.974L531.833 401.5L535.359 405.027L538.884 401.5Z" fill="#726E6E" fill-opacity="0.23"/>
<path d="M583.203 401.5L579.678 397.974L576.152 401.5L579.678 405.027L583.203 401.5Z" fill="#726E6E" fill-opacity="0.23"/>
<path d="M627.523 401.5L623.997 397.974L620.472 401.5L623.997 405.027L627.523 401.5Z" fill="#726E6E" fill-opacity="0.23"/>
<path d="M671.842 401.5L668.316 397.974L664.791 401.5L668.316 405.027L671.842 401.5Z" fill="#726E6E" fill-opacity="0.23"/>
<path d="M716.161 401.5L712.636 397.974L709.11 401.5L712.636 405.027L716.161 401.5Z" fill="#726E6E" fill-opacity="0.23"/>
<path d="M760.481 401.5L756.955 397.974L753.43 401.5L756.955 405.027L760.481 401.5Z" fill="#726E6E" fill-opacity="0.23"/>
<path d="M804.8 401.5L801.275 397.974L797.749 401.5L801.275 405.027L804.8 401.5Z" fill="#726E6E" fill-opacity="0.23"/>
<path d="M7.05117 445.83L3.52559 442.304L0 445.83L3.52559 449.357L7.05117 445.83Z" fill="#726E6E" fill-opacity="0.23"/>
<path d="M51.3707 445.83L47.8452 442.304L44.3196 445.83L47.8452 449.357L51.3707 445.83Z" fill="#726E6E" fill-opacity="0.23"/>
<path d="M95.6899 445.83L92.1643 442.304L88.6387 445.83L92.1643 449.357L95.6899 445.83Z" fill="#726E6E" fill-opacity="0.23"/>
<path d="M140.009 445.83L136.484 442.304L132.958 445.83L136.484 449.357L140.009 445.83Z" fill="#726E6E" fill-opacity="0.23"/>
<path d="M184.329 445.83L180.803 442.304L177.278 445.83L180.803 449.357L184.329 445.83Z" fill="#726E6E" fill-opacity="0.23"/>
<path d="M228.648 445.83L225.123 442.304L221.597 445.83L225.123 449.357L228.648 445.83Z" fill="#726E6E" fill-opacity="0.23"/>
<path d="M272.968 445.83L269.442 442.304L265.916 445.83L269.442 449.357L272.968 445.83Z" fill="#726E6E" fill-opacity="0.23"/>
<path d="M317.287 445.83L313.761 442.304L310.236 445.83L313.761 449.357L317.287 445.83Z" fill="#726E6E" fill-opacity="0.23"/>
<path d="M361.606 445.83L358.081 442.304L354.555 445.83L358.081 449.357L361.606 445.83Z" fill="#726E6E" fill-opacity="0.23"/>
<path d="M405.926 445.83L402.4 442.304L398.875 445.83L402.4 449.357L405.926 445.83Z" fill="#726E6E" fill-opacity="0.23"/>
<path d="M450.245 445.83L446.719 442.304L443.194 445.83L446.719 449.357L450.245 445.83Z" fill="#726E6E" fill-opacity="0.23"/>
<path d="M494.565 445.83L491.039 442.304L487.513 445.83L491.039 449.357L494.565 445.83Z" fill="#726E6E" fill-opacity="0.23"/>
<path d="M538.884 445.83L535.359 442.304L531.833 445.83L535.359 449.357L538.884 445.83Z" fill="#726E6E" fill-opacity="0.23"/>
<path d="M583.203 445.83L579.678 442.304L576.152 445.83L579.678 449.357L583.203 445.83Z" fill="#726E6E" fill-opacity="0.23"/>
<path d="M627.523 445.83L623.997 442.304L620.472 445.83L623.997 449.357L627.523 445.83Z" fill="#726E6E" fill-opacity="0.23"/>
<path d="M671.842 445.83L668.316 442.304L664.791 445.83L668.316 449.357L671.842 445.83Z" fill="#726E6E" fill-opacity="0.23"/>
<path d="M716.161 445.83L712.636 442.304L709.11 445.83L712.636 449.357L716.161 445.83Z" fill="#726E6E" fill-opacity="0.23"/>
<path d="M760.481 445.83L756.955 442.304L753.43 445.83L756.955 449.357L760.481 445.83Z" fill="#726E6E" fill-opacity="0.23"/>
<path d="M804.8 445.83L801.275 442.304L797.749 445.83L801.275 449.357L804.8 445.83Z" fill="#726E6E" fill-opacity="0.23"/>
<path d="M7.05117 490.16L3.52559 486.634L0 490.16L3.52559 493.687L7.05117 490.16Z" fill="#726E6E" fill-opacity="0.23"/>
<path d="M51.3707 490.16L47.8452 486.634L44.3196 490.16L47.8452 493.687L51.3707 490.16Z" fill="#726E6E" fill-opacity="0.23"/>
<path d="M95.6899 490.16L92.1643 486.634L88.6387 490.16L92.1643 493.687L95.6899 490.16Z" fill="#726E6E" fill-opacity="0.23"/>
<path d="M140.009 490.16L136.484 486.634L132.958 490.16L136.484 493.687L140.009 490.16Z" fill="#726E6E" fill-opacity="0.23"/>
<path d="M184.329 490.16L180.803 486.634L177.278 490.16L180.803 493.687L184.329 490.16Z" fill="#726E6E" fill-opacity="0.23"/>
<path d="M228.648 490.16L225.123 486.634L221.597 490.16L225.123 493.687L228.648 490.16Z" fill="#726E6E" fill-opacity="0.23"/>
<path d="M272.968 490.16L269.442 486.634L265.916 490.16L269.442 493.687L272.968 490.16Z" fill="#726E6E" fill-opacity="0.23"/>
<path d="M317.287 490.16L313.761 486.634L310.236 490.16L313.761 493.687L317.287 490.16Z" fill="#726E6E" fill-opacity="0.23"/>
<path d="M361.606 490.16L358.081 486.634L354.555 490.16L358.081 493.687L361.606 490.16Z" fill="#726E6E" fill-opacity="0.23"/>
<path d="M405.926 490.16L402.4 486.634L398.875 490.16L402.4 493.687L405.926 490.16Z" fill="#726E6E" fill-opacity="0.23"/>
<path d="M450.245 490.16L446.719 486.634L443.194 490.16L446.719 493.687L450.245 490.16Z" fill="#726E6E" fill-opacity="0.23"/>
<path d="M494.565 490.16L491.039 486.634L487.513 490.16L491.039 493.687L494.565 490.16Z" fill="#726E6E" fill-opacity="0.23"/>
<path d="M538.884 490.16L535.359 486.634L531.833 490.16L535.359 493.687L538.884 490.16Z" fill="#726E6E" fill-opacity="0.23"/>
<path d="M583.203 490.16L579.678 486.634L576.152 490.16L579.678 493.687L583.203 490.16Z" fill="#726E6E" fill-opacity="0.23"/>
<path d="M627.523 490.16L623.997 486.634L620.472 490.16L623.997 493.687L627.523 490.16Z" fill="#726E6E" fill-opacity="0.23"/>
<path d="M671.842 490.16L668.316 486.634L664.791 490.16L668.316 493.687L671.842 490.16Z" fill="#726E6E" fill-opacity="0.23"/>
<path d="M716.161 490.16L712.636 486.634L709.11 490.16L712.636 493.687L716.161 490.16Z" fill="#726E6E" fill-opacity="0.23"/>
<path d="M760.481 490.16L756.955 486.634L753.43 490.16L756.955 493.687L760.481 490.16Z" fill="#726E6E" fill-opacity="0.23"/>
<path d="M804.8 490.16L801.275 486.634L797.749 490.16L801.275 493.687L804.8 490.16Z" fill="#726E6E" fill-opacity="0.23"/>
<path d="M7.05117 534.491L3.52559 530.965L0 534.491L3.52559 538.018L7.05117 534.491Z" fill="#726E6E" fill-opacity="0.23"/>
<path d="M51.3707 534.491L47.8452 530.965L44.3196 534.491L47.8452 538.018L51.3707 534.491Z" fill="#726E6E" fill-opacity="0.23"/>
<path d="M95.6899 534.491L92.1643 530.965L88.6387 534.491L92.1643 538.018L95.6899 534.491Z" fill="#726E6E" fill-opacity="0.23"/>
<path d="M140.009 534.491L136.484 530.965L132.958 534.491L136.484 538.018L140.009 534.491Z" fill="#726E6E" fill-opacity="0.23"/>
<path d="M184.329 534.491L180.803 530.965L177.278 534.491L180.803 538.018L184.329 534.491Z" fill="#726E6E" fill-opacity="0.23"/>
<path d="M228.648 534.491L225.123 530.965L221.597 534.491L225.123 538.018L228.648 534.491Z" fill="#726E6E" fill-opacity="0.23"/>
<path d="M272.968 534.491L269.442 530.965L265.916 534.491L269.442 538.018L272.968 534.491Z" fill="#726E6E" fill-opacity="0.23"/>
<path d="M317.287 534.491L313.761 530.965L310.236 534.491L313.761 538.018L317.287 534.491Z" fill="#726E6E" fill-opacity="0.23"/>
<path d="M361.606 534.491L358.081 530.965L354.555 534.491L358.081 538.018L361.606 534.491Z" fill="#726E6E" fill-opacity="0.23"/>
<path d="M405.926 534.491L402.4 530.965L398.875 534.491L402.4 538.018L405.926 534.491Z" fill="#726E6E" fill-opacity="0.23"/>
<path d="M450.245 534.491L446.719 530.965L443.194 534.491L446.719 538.018L450.245 534.491Z" fill="#726E6E" fill-opacity="0.23"/>
<path d="M494.565 534.491L491.039 530.965L487.513 534.491L491.039 538.018L494.565 534.491Z" fill="#726E6E" fill-opacity="0.23"/>
<path d="M538.884 534.491L535.359 530.965L531.833 534.491L535.359 538.018L538.884 534.491Z" fill="#726E6E" fill-opacity="0.23"/>
<path d="M583.203 534.491L579.678 530.965L576.152 534.491L579.678 538.018L583.203 534.491Z" fill="#726E6E" fill-opacity="0.23"/>
<path d="M627.523 534.491L623.997 530.965L620.472 534.491L623.997 538.018L627.523 534.491Z" fill="#726E6E" fill-opacity="0.23"/>
<path d="M671.842 534.491L668.316 530.965L664.791 534.491L668.316 538.018L671.842 534.491Z" fill="#726E6E" fill-opacity="0.23"/>
<path d="M716.161 534.491L712.636 530.965L709.11 534.491L712.636 538.018L716.161 534.491Z" fill="#726E6E" fill-opacity="0.23"/>
<path d="M760.481 534.491L756.955 530.965L753.43 534.491L756.955 538.018L760.481 534.491Z" fill="#726E6E" fill-opacity="0.23"/>
<path d="M804.8 534.491L801.275 530.965L797.749 534.491L801.275 538.018L804.8 534.491Z" fill="#726E6E" fill-opacity="0.23"/>
<path d="M7.05117 578.821L3.52559 575.295L0 578.821L3.52559 582.348L7.05117 578.821Z" fill="#726E6E" fill-opacity="0.23"/>
<path d="M51.3707 578.821L47.8452 575.295L44.3196 578.821L47.8452 582.348L51.3707 578.821Z" fill="#726E6E" fill-opacity="0.23"/>
<path d="M95.6899 578.821L92.1643 575.295L88.6387 578.821L92.1643 582.348L95.6899 578.821Z" fill="#726E6E" fill-opacity="0.23"/>
<path d="M140.009 578.821L136.484 575.295L132.958 578.821L136.484 582.348L140.009 578.821Z" fill="#726E6E" fill-opacity="0.23"/>
<path d="M184.329 578.821L180.803 575.295L177.278 578.821L180.803 582.348L184.329 578.821Z" fill="#726E6E" fill-opacity="0.23"/>
<path d="M228.648 578.821L225.123 575.295L221.597 578.821L225.123 582.348L228.648 578.821Z" fill="#726E6E" fill-opacity="0.23"/>
<path d="M272.968 578.821L269.442 575.295L265.916 578.821L269.442 582.348L272.968 578.821Z" fill="#726E6E" fill-opacity="0.23"/>
<path d="M317.287 578.821L313.761 575.295L310.236 578.821L313.761 582.348L317.287 578.821Z" fill="#726E6E" fill-opacity="0.23"/>
<path d="M361.606 578.821L358.081 575.295L354.555 578.821L358.081 582.348L361.606 578.821Z" fill="#726E6E" fill-opacity="0.23"/>
<path d="M405.926 578.821L402.4 575.295L398.875 578.821L402.4 582.348L405.926 578.821Z" fill="#726E6E" fill-opacity="0.23"/>
<path d="M450.245 578.821L446.719 575.295L443.194 578.821L446.719 582.348L450.245 578.821Z" fill="#726E6E" fill-opacity="0.23"/>
<path d="M494.565 578.821L491.039 575.295L487.513 578.821L491.039 582.348L494.565 578.821Z" fill="#726E6E" fill-opacity="0.23"/>
<path d="M538.884 578.821L535.359 575.295L531.833 578.821L535.359 582.348L538.884 578.821Z" fill="#726E6E" fill-opacity="0.23"/>
<path d="M583.203 578.821L579.678 575.295L576.152 578.821L579.678 582.348L583.203 578.821Z" fill="#726E6E" fill-opacity="0.23"/>
<path d="M627.523 578.821L623.997 575.295L620.472 578.821L623.997 582.348L627.523 578.821Z" fill="#726E6E" fill-opacity="0.23"/>
<path d="M671.842 578.821L668.316 575.295L664.791 578.821L668.316 582.348L671.842 578.821Z" fill="#726E6E" fill-opacity="0.23"/>
<path d="M716.161 578.821L712.636 575.295L709.11 578.821L712.636 582.348L716.161 578.821Z" fill="#726E6E" fill-opacity="0.23"/>
<path d="M760.481 578.821L756.955 575.295L753.43 578.821L756.955 582.348L760.481 578.821Z" fill="#726E6E" fill-opacity="0.23"/>
<path d="M804.8 578.821L801.275 575.295L797.749 578.821L801.275 582.348L804.8 578.821Z" fill="#726E6E" fill-opacity="0.23"/>
<path d="M7.05117 623.151L3.52559 619.625L0 623.151L3.52559 626.678L7.05117 623.151Z" fill="#726E6E" fill-opacity="0.23"/>
<path d="M51.3707 623.151L47.8452 619.625L44.3196 623.151L47.8452 626.678L51.3707 623.151Z" fill="#726E6E" fill-opacity="0.23"/>
<path d="M95.6899 623.151L92.1643 619.625L88.6387 623.151L92.1643 626.678L95.6899 623.151Z" fill="#726E6E" fill-opacity="0.23"/>
<path d="M140.009 623.151L136.484 619.625L132.958 623.151L136.484 626.678L140.009 623.151Z" fill="#726E6E" fill-opacity="0.23"/>
<path d="M184.329 623.151L180.803 619.625L177.278 623.151L180.803 626.678L184.329 623.151Z" fill="#726E6E" fill-opacity="0.23"/>
<path d="M228.648 623.151L225.123 619.625L221.597 623.151L225.123 626.678L228.648 623.151Z" fill="#726E6E" fill-opacity="0.23"/>
<path d="M272.968 623.151L269.442 619.625L265.916 623.151L269.442 626.678L272.968 623.151Z" fill="#726E6E" fill-opacity="0.23"/>
<path d="M317.287 623.151L313.761 619.625L310.236 623.151L313.761 626.678L317.287 623.151Z" fill="#726E6E" fill-opacity="0.23"/>
<path d="M361.606 623.151L358.081 619.625L354.555 623.151L358.081 626.678L361.606 623.151Z" fill="#726E6E" fill-opacity="0.23"/>
<path d="M405.926 623.151L402.4 619.625L398.875 623.151L402.4 626.678L405.926 623.151Z" fill="#726E6E" fill-opacity="0.23"/>
<path d="M450.245 623.151L446.719 619.625L443.194 623.151L446.719 626.678L450.245 623.151Z" fill="#726E6E" fill-opacity="0.23"/>
<path d="M494.565 623.151L491.039 619.625L487.513 623.151L491.039 626.678L494.565 623.151Z" fill="#726E6E" fill-opacity="0.23"/>
<path d="M538.884 623.151L535.359 619.625L531.833 623.151L535.359 626.678L538.884 623.151Z" fill="#726E6E" fill-opacity="0.23"/>
<path d="M583.203 623.151L579.678 619.625L576.152 623.151L579.678 626.678L583.203 623.151Z" fill="#726E6E" fill-opacity="0.23"/>
<path d="M627.523 623.151L623.997 619.625L620.472 623.151L623.997 626.678L627.523 623.151Z" fill="#726E6E" fill-opacity="0.23"/>
<path d="M671.842 623.151L668.316 619.625L664.791 623.151L668.316 626.678L671.842 623.151Z" fill="#726E6E" fill-opacity="0.23"/>
<path d="M716.161 623.151L712.636 619.625L709.11 623.151L712.636 626.678L716.161 623.151Z" fill="#726E6E" fill-opacity="0.23"/>
<path d="M760.481 623.151L756.955 619.625L753.43 623.151L756.955 626.678L760.481 623.151Z" fill="#726E6E" fill-opacity="0.23"/>
<path d="M804.8 623.151L801.275 619.625L797.749 623.151L801.275 626.678L804.8 623.151Z" fill="#726E6E" fill-opacity="0.23"/>
<path d="M7.05117 667.482L3.52559 663.956L0 667.482L3.52559 671.009L7.05117 667.482Z" fill="#726E6E" fill-opacity="0.23"/>
<path d="M51.3707 667.482L47.8452 663.956L44.3196 667.482L47.8452 671.009L51.3707 667.482Z" fill="#726E6E" fill-opacity="0.23"/>
<path d="M95.6899 667.482L92.1643 663.956L88.6387 667.482L92.1643 671.009L95.6899 667.482Z" fill="#726E6E" fill-opacity="0.23"/>
<path d="M140.009 667.482L136.484 663.956L132.958 667.482L136.484 671.009L140.009 667.482Z" fill="#726E6E" fill-opacity="0.23"/>
<path d="M184.329 667.482L180.803 663.956L177.278 667.482L180.803 671.009L184.329 667.482Z" fill="#726E6E" fill-opacity="0.23"/>
<path d="M228.648 667.482L225.123 663.956L221.597 667.482L225.123 671.009L228.648 667.482Z" fill="#726E6E" fill-opacity="0.23"/>
<path d="M272.968 667.482L269.442 663.956L265.916 667.482L269.442 671.009L272.968 667.482Z" fill="#726E6E" fill-opacity="0.23"/>
<path d="M317.287 667.482L313.761 663.956L310.236 667.482L313.761 671.009L317.287 667.482Z" fill="#726E6E" fill-opacity="0.23"/>
<path d="M361.606 667.482L358.081 663.956L354.555 667.482L358.081 671.009L361.606 667.482Z" fill="#726E6E" fill-opacity="0.23"/>
<path d="M405.926 667.482L402.4 663.956L398.875 667.482L402.4 671.009L405.926 667.482Z" fill="#726E6E" fill-opacity="0.23"/>
<path d="M450.245 667.482L446.719 663.956L443.194 667.482L446.719 671.009L450.245 667.482Z" fill="#726E6E" fill-opacity="0.23"/>
<path d="M494.565 667.482L491.039 663.956L487.513 667.482L491.039 671.009L494.565 667.482Z" fill="#726E6E" fill-opacity="0.23"/>
<path d="M538.884 667.482L535.359 663.956L531.833 667.482L535.359 671.009L538.884 667.482Z" fill="#726E6E" fill-opacity="0.23"/>
<path d="M583.203 667.482L579.678 663.956L576.152 667.482L579.678 671.009L583.203 667.482Z" fill="#726E6E" fill-opacity="0.23"/>
<path d="M627.523 667.482L623.997 663.956L620.472 667.482L623.997 671.009L627.523 667.482Z" fill="#726E6E" fill-opacity="0.23"/>
<path d="M671.842 667.482L668.316 663.956L664.791 667.482L668.316 671.009L671.842 667.482Z" fill="#726E6E" fill-opacity="0.23"/>
<path d="M716.161 667.482L712.636 663.956L709.11 667.482L712.636 671.009L716.161 667.482Z" fill="#726E6E" fill-opacity="0.23"/>
<path d="M760.481 667.482L756.955 663.956L753.43 667.482L756.955 671.009L760.481 667.482Z" fill="#726E6E" fill-opacity="0.23"/>
<path d="M804.8 667.482L801.275 663.956L797.749 667.482L801.275 671.009L804.8 667.482Z" fill="#726E6E" fill-opacity="0.23"/>
<path d="M7.05117 711.812L3.52559 708.286L0 711.812L3.52559 715.339L7.05117 711.812Z" fill="#726E6E" fill-opacity="0.23"/>
<path d="M51.3707 711.812L47.8452 708.286L44.3196 711.812L47.8452 715.339L51.3707 711.812Z" fill="#726E6E" fill-opacity="0.23"/>
<path d="M95.6899 711.812L92.1643 708.286L88.6387 711.812L92.1643 715.339L95.6899 711.812Z" fill="#726E6E" fill-opacity="0.23"/>
<path d="M140.009 711.812L136.484 708.286L132.958 711.812L136.484 715.339L140.009 711.812Z" fill="#726E6E" fill-opacity="0.23"/>
<path d="M184.329 711.812L180.803 708.286L177.278 711.812L180.803 715.339L184.329 711.812Z" fill="#726E6E" fill-opacity="0.23"/>
<path d="M228.648 711.812L225.123 708.286L221.597 711.812L225.123 715.339L228.648 711.812Z" fill="#726E6E" fill-opacity="0.23"/>
<path d="M272.968 711.812L269.442 708.286L265.916 711.812L269.442 715.339L272.968 711.812Z" fill="#726E6E" fill-opacity="0.23"/>
<path d="M317.287 711.812L313.761 708.286L310.236 711.812L313.761 715.339L317.287 711.812Z" fill="#726E6E" fill-opacity="0.23"/>
<path d="M361.606 711.812L358.081 708.286L354.555 711.812L358.081 715.339L361.606 711.812Z" fill="#726E6E" fill-opacity="0.23"/>
<path d="M405.926 711.812L402.4 708.286L398.875 711.812L402.4 715.339L405.926 711.812Z" fill="#726E6E" fill-opacity="0.23"/>
<path d="M450.245 711.812L446.719 708.286L443.194 711.812L446.719 715.339L450.245 711.812Z" fill="#726E6E" fill-opacity="0.23"/>
<path d="M494.565 711.812L491.039 708.286L487.513 711.812L491.039 715.339L494.565 711.812Z" fill="#726E6E" fill-opacity="0.23"/>
<path d="M538.884 711.812L535.359 708.286L531.833 711.812L535.359 715.339L538.884 711.812Z" fill="#726E6E" fill-opacity="0.23"/>
<path d="M583.203 711.812L579.678 708.286L576.152 711.812L579.678 715.339L583.203 711.812Z" fill="#726E6E" fill-opacity="0.23"/>
<path d="M627.523 711.812L623.997 708.286L620.472 711.812L623.997 715.339L627.523 711.812Z" fill="#726E6E" fill-opacity="0.23"/>
<path d="M671.842 711.812L668.316 708.286L664.791 711.812L668.316 715.339L671.842 711.812Z" fill="#726E6E" fill-opacity="0.23"/>
<path d="M716.161 711.812L712.636 708.286L709.11 711.812L712.636 715.339L716.161 711.812Z" fill="#726E6E" fill-opacity="0.23"/>
<path d="M760.481 711.812L756.955 708.286L753.43 711.812L756.955 715.339L760.481 711.812Z" fill="#726E6E" fill-opacity="0.23"/>
<path d="M804.8 711.812L801.275 708.286L797.749 711.812L801.275 715.339L804.8 711.812Z" fill="#726E6E" fill-opacity="0.23"/>
<path d="M7.05117 756.142L3.52559 752.616L0 756.142L3.52559 759.669L7.05117 756.142Z" fill="#726E6E" fill-opacity="0.23"/>
<path d="M51.3707 756.142L47.8452 752.616L44.3196 756.142L47.8452 759.669L51.3707 756.142Z" fill="#726E6E" fill-opacity="0.23"/>
<path d="M95.6899 756.142L92.1643 752.616L88.6387 756.142L92.1643 759.669L95.6899 756.142Z" fill="#726E6E" fill-opacity="0.23"/>
<path d="M140.009 756.142L136.484 752.616L132.958 756.142L136.484 759.669L140.009 756.142Z" fill="#726E6E" fill-opacity="0.23"/>
<path d="M184.329 756.142L180.803 752.616L177.278 756.142L180.803 759.669L184.329 756.142Z" fill="#726E6E" fill-opacity="0.23"/>
<path d="M228.648 756.142L225.123 752.616L221.597 756.142L225.123 759.669L228.648 756.142Z" fill="#726E6E" fill-opacity="0.23"/>
<path d="M272.968 756.142L269.442 752.616L265.916 756.142L269.442 759.669L272.968 756.142Z" fill="#726E6E" fill-opacity="0.23"/>
<path d="M317.287 756.142L313.761 752.616L310.236 756.142L313.761 759.669L317.287 756.142Z" fill="#726E6E" fill-opacity="0.23"/>
<path d="M361.606 756.142L358.081 752.616L354.555 756.142L358.081 759.669L361.606 756.142Z" fill="#726E6E" fill-opacity="0.23"/>
<path d="M405.926 756.142L402.4 752.616L398.875 756.142L402.4 759.669L405.926 756.142Z" fill="#726E6E" fill-opacity="0.23"/>
<path d="M450.245 756.142L446.719 752.616L443.194 756.142L446.719 759.669L450.245 756.142Z" fill="#726E6E" fill-opacity="0.23"/>
<path d="M494.565 756.142L491.039 752.616L487.513 756.142L491.039 759.669L494.565 756.142Z" fill="#726E6E" fill-opacity="0.23"/>
<path d="M538.884 756.142L535.359 752.616L531.833 756.142L535.359 759.669L538.884 756.142Z" fill="#726E6E" fill-opacity="0.23"/>
<path d="M583.203 756.142L579.678 752.616L576.152 756.142L579.678 759.669L583.203 756.142Z" fill="#726E6E" fill-opacity="0.23"/>
<path d="M627.523 756.142L623.997 752.616L620.472 756.142L623.997 759.669L627.523 756.142Z" fill="#726E6E" fill-opacity="0.23"/>
<path d="M671.842 756.142L668.316 752.616L664.791 756.142L668.316 759.669L671.842 756.142Z" fill="#726E6E" fill-opacity="0.23"/>
<path d="M716.161 756.142L712.636 752.616L709.11 756.142L712.636 759.669L716.161 756.142Z" fill="#726E6E" fill-opacity="0.23"/>
<path d="M760.481 756.142L756.955 752.616L753.43 756.142L756.955 759.669L760.481 756.142Z" fill="#726E6E" fill-opacity="0.23"/>
<path d="M804.8 756.142L801.275 752.616L797.749 756.142L801.275 759.669L804.8 756.142Z" fill="#726E6E" fill-opacity="0.23"/>
<path d="M7.05117 800.474L3.52559 796.947L0 800.474L3.52559 804L7.05117 800.474Z" fill="#726E6E" fill-opacity="0.23"/>
<path d="M51.3707 800.474L47.8452 796.947L44.3196 800.474L47.8452 804L51.3707 800.474Z" fill="#726E6E" fill-opacity="0.23"/>
<path d="M95.6899 800.474L92.1643 796.947L88.6387 800.474L92.1643 804L95.6899 800.474Z" fill="#726E6E" fill-opacity="0.23"/>
<path d="M140.009 800.474L136.484 796.947L132.958 800.474L136.484 804L140.009 800.474Z" fill="#726E6E" fill-opacity="0.23"/>
<path d="M184.329 800.474L180.803 796.947L177.278 800.474L180.803 804L184.329 800.474Z" fill="#726E6E" fill-opacity="0.23"/>
<path d="M228.648 800.474L225.123 796.947L221.597 800.474L225.123 804L228.648 800.474Z" fill="#726E6E" fill-opacity="0.23"/>
<path d="M272.968 800.474L269.442 796.947L265.916 800.474L269.442 804L272.968 800.474Z" fill="#726E6E" fill-opacity="0.23"/>
<path d="M317.287 800.474L313.761 796.947L310.236 800.474L313.761 804L317.287 800.474Z" fill="#726E6E" fill-opacity="0.23"/>
<path d="M361.606 800.474L358.081 796.947L354.555 800.474L358.081 804L361.606 800.474Z" fill="#726E6E" fill-opacity="0.23"/>
<path d="M405.926 800.474L402.4 796.947L398.875 800.474L402.4 804L405.926 800.474Z" fill="#726E6E" fill-opacity="0.23"/>
<path d="M450.245 800.474L446.719 796.947L443.194 800.474L446.719 804L450.245 800.474Z" fill="#726E6E" fill-opacity="0.23"/>
<path d="M494.565 800.474L491.039 796.947L487.513 800.474L491.039 804L494.565 800.474Z" fill="#726E6E" fill-opacity="0.23"/>
<path d="M538.884 800.474L535.359 796.947L531.833 800.474L535.359 804L538.884 800.474Z" fill="#726E6E" fill-opacity="0.23"/>
<path d="M583.203 800.474L579.678 796.947L576.152 800.474L579.678 804L583.203 800.474Z" fill="#726E6E" fill-opacity="0.23"/>
<path d="M627.523 800.474L623.997 796.947L620.472 800.474L623.997 804L627.523 800.474Z" fill="#726E6E" fill-opacity="0.23"/>
<path d="M671.842 800.474L668.316 796.947L664.791 800.474L668.316 804L671.842 800.474Z" fill="#726E6E" fill-opacity="0.23"/>
<path d="M716.161 800.474L712.636 796.947L709.11 800.474L712.636 804L716.161 800.474Z" fill="#726E6E" fill-opacity="0.23"/>
<path d="M760.481 800.474L756.955 796.947L753.43 800.474L756.955 804L760.481 800.474Z" fill="#726E6E" fill-opacity="0.23"/>
<path d="M804.8 800.474L801.275 796.947L797.749 800.474L801.275 804L804.8 800.474Z" fill="#726E6E" fill-opacity="0.23"/>
<path d="M450.251 2.52646L446.725 -1L443.2 2.52646L446.725 6.05291L450.251 2.52646Z" fill="#726E6E" fill-opacity="0.23"/>
<path d="M494.571 2.52646L491.045 -1L487.519 2.52646L491.045 6.05291L494.571 2.52646Z" fill="#726E6E" fill-opacity="0.23"/>
<path d="M538.89 2.52646L535.364 -1L531.839 2.52646L535.364 6.05291L538.89 2.52646Z" fill="#726E6E" fill-opacity="0.23"/>
<path d="M583.209 2.52646L579.684 -1L576.158 2.52646L579.684 6.05291L583.209 2.52646Z" fill="#726E6E" fill-opacity="0.23"/>
<path d="M627.529 2.52646L624.003 -1L620.478 2.52646L624.003 6.05291L627.529 2.52646Z" fill="#726E6E" fill-opacity="0.23"/>
<path d="M671.848 2.52646L668.322 -1L664.797 2.52646L668.322 6.05291L671.848 2.52646Z" fill="#726E6E" fill-opacity="0.23"/>
<path d="M716.167 2.52646L712.642 -1L709.116 2.52646L712.642 6.05291L716.167 2.52646Z" fill="#726E6E" fill-opacity="0.23"/>
<path d="M760.487 2.52646L756.961 -1L753.435 2.52646L756.961 6.05291L760.487 2.52646Z" fill="#726E6E" fill-opacity="0.23"/>
<path d="M804.806 2.52646L801.281 -1L797.755 2.52646L801.281 6.05291L804.806 2.52646Z" fill="#726E6E" fill-opacity="0.23"/>
<path d="M849.126 2.52646L845.6 -1L842.075 2.52646L845.6 6.05291L849.126 2.52646Z" fill="#726E6E" fill-opacity="0.23"/>
<path d="M893.445 2.52646L889.919 -1L886.394 2.52646L889.919 6.05291L893.445 2.52646Z" fill="#726E6E" fill-opacity="0.23"/>
<path d="M937.764 2.52646L934.239 -1L930.713 2.52646L934.239 6.05291L937.764 2.52646Z" fill="#726E6E" fill-opacity="0.23"/>
<path d="M982.084 2.52646L978.558 -1L975.033 2.52646L978.558 6.05291L982.084 2.52646Z" fill="#726E6E" fill-opacity="0.23"/>
<path d="M1026.4 2.52646L1022.88 -1L1019.35 2.52646L1022.88 6.05291L1026.4 2.52646Z" fill="#726E6E" fill-opacity="0.23"/>
<path d="M1070.72 2.52646L1067.2 -1L1063.67 2.52646L1067.2 6.05291L1070.72 2.52646Z" fill="#726E6E" fill-opacity="0.23"/>
<path d="M1115.04 2.52646L1111.52 -1L1107.99 2.52646L1111.52 6.05291L1115.04 2.52646Z" fill="#726E6E" fill-opacity="0.23"/>
<path d="M1159.36 2.52646L1155.84 -1L1152.31 2.52646L1155.84 6.05291L1159.36 2.52646Z" fill="#726E6E" fill-opacity="0.23"/>
<path d="M1203.68 2.52646L1200.15 -1L1196.63 2.52646L1200.15 6.05291L1203.68 2.52646Z" fill="#726E6E" fill-opacity="0.23"/>
<path d="M1248 2.52646L1244.47 -1L1240.95 2.52646L1244.47 6.05291L1248 2.52646Z" fill="#726E6E" fill-opacity="0.23"/>
<path d="M450.251 46.857L446.725 43.3305L443.2 46.857L446.725 50.3834L450.251 46.857Z" fill="#726E6E" fill-opacity="0.23"/>
<path d="M494.571 46.857L491.045 43.3305L487.519 46.857L491.045 50.3834L494.571 46.857Z" fill="#726E6E" fill-opacity="0.23"/>
<path d="M538.89 46.857L535.364 43.3305L531.839 46.857L535.364 50.3834L538.89 46.857Z" fill="#726E6E" fill-opacity="0.23"/>
<path d="M583.209 46.857L579.684 43.3305L576.158 46.857L579.684 50.3834L583.209 46.857Z" fill="#726E6E" fill-opacity="0.23"/>
<path d="M627.529 46.857L624.003 43.3305L620.478 46.857L624.003 50.3834L627.529 46.857Z" fill="#726E6E" fill-opacity="0.23"/>
<path d="M671.848 46.857L668.322 43.3305L664.797 46.857L668.322 50.3834L671.848 46.857Z" fill="#726E6E" fill-opacity="0.23"/>
<path d="M716.167 46.857L712.642 43.3305L709.116 46.857L712.642 50.3834L716.167 46.857Z" fill="#726E6E" fill-opacity="0.23"/>
<path d="M760.487 46.857L756.961 43.3305L753.435 46.857L756.961 50.3834L760.487 46.857Z" fill="#726E6E" fill-opacity="0.23"/>
<path d="M804.806 46.857L801.281 43.3305L797.755 46.857L801.281 50.3834L804.806 46.857Z" fill="#726E6E" fill-opacity="0.23"/>
<path d="M849.126 46.857L845.6 43.3305L842.075 46.857L845.6 50.3834L849.126 46.857Z" fill="#726E6E" fill-opacity="0.23"/>
<path d="M893.445 46.857L889.919 43.3305L886.394 46.857L889.919 50.3834L893.445 46.857Z" fill="#726E6E" fill-opacity="0.23"/>
<path d="M937.764 46.857L934.239 43.3305L930.713 46.857L934.239 50.3834L937.764 46.857Z" fill="#726E6E" fill-opacity="0.23"/>
<path d="M982.084 46.857L978.558 43.3305L975.033 46.857L978.558 50.3834L982.084 46.857Z" fill="#726E6E" fill-opacity="0.23"/>
<path d="M1026.4 46.857L1022.88 43.3305L1019.35 46.857L1022.88 50.3834L1026.4 46.857Z" fill="#726E6E" fill-opacity="0.23"/>
<path d="M1070.72 46.857L1067.2 43.3305L1063.67 46.857L1067.2 50.3834L1070.72 46.857Z" fill="#726E6E" fill-opacity="0.23"/>
<path d="M1115.04 46.857L1111.52 43.3305L1107.99 46.857L1111.52 50.3834L1115.04 46.857Z" fill="#726E6E" fill-opacity="0.23"/>
<path d="M1159.36 46.857L1155.84 43.3305L1152.31 46.857L1155.84 50.3834L1159.36 46.857Z" fill="#726E6E" fill-opacity="0.23"/>
<path d="M1203.68 46.857L1200.15 43.3305L1196.63 46.857L1200.15 50.3834L1203.68 46.857Z" fill="#726E6E" fill-opacity="0.23"/>
<path d="M1248 46.857L1244.47 43.3305L1240.95 46.857L1244.47 50.3834L1248 46.857Z" fill="#726E6E" fill-opacity="0.23"/>
<path d="M450.251 91.1875L446.725 87.6611L443.2 91.1875L446.725 94.714L450.251 91.1875Z" fill="#726E6E" fill-opacity="0.23"/>
<path d="M494.571 91.1875L491.045 87.6611L487.519 91.1875L491.045 94.714L494.571 91.1875Z" fill="#726E6E" fill-opacity="0.23"/>
<path d="M538.89 91.1875L535.364 87.6611L531.839 91.1875L535.364 94.714L538.89 91.1875Z" fill="#726E6E" fill-opacity="0.23"/>
<path d="M583.209 91.1875L579.684 87.6611L576.158 91.1875L579.684 94.714L583.209 91.1875Z" fill="#726E6E" fill-opacity="0.23"/>
<path d="M627.529 91.1875L624.003 87.6611L620.478 91.1875L624.003 94.714L627.529 91.1875Z" fill="#726E6E" fill-opacity="0.23"/>
<path d="M671.848 91.1875L668.322 87.6611L664.797 91.1875L668.322 94.714L671.848 91.1875Z" fill="#726E6E" fill-opacity="0.23"/>
<path d="M716.167 91.1875L712.642 87.6611L709.116 91.1875L712.642 94.714L716.167 91.1875Z" fill="#726E6E" fill-opacity="0.23"/>
<path d="M760.487 91.1875L756.961 87.6611L753.435 91.1875L756.961 94.714L760.487 91.1875Z" fill="#726E6E" fill-opacity="0.23"/>
<path d="M804.806 91.1875L801.281 87.6611L797.755 91.1875L801.281 94.714L804.806 91.1875Z" fill="#726E6E" fill-opacity="0.23"/>
<path d="M849.126 91.1875L845.6 87.6611L842.075 91.1875L845.6 94.714L849.126 91.1875Z" fill="#726E6E" fill-opacity="0.23"/>
<path d="M893.445 91.1875L889.919 87.6611L886.394 91.1875L889.919 94.714L893.445 91.1875Z" fill="#726E6E" fill-opacity="0.23"/>
<path d="M937.764 91.1875L934.239 87.6611L930.713 91.1875L934.239 94.714L937.764 91.1875Z" fill="#726E6E" fill-opacity="0.23"/>
<path d="M982.084 91.1875L978.558 87.6611L975.033 91.1875L978.558 94.714L982.084 91.1875Z" fill="#726E6E" fill-opacity="0.23"/>
<path d="M1026.4 91.1875L1022.88 87.6611L1019.35 91.1875L1022.88 94.714L1026.4 91.1875Z" fill="#726E6E" fill-opacity="0.23"/>
<path d="M1070.72 91.1875L1067.2 87.6611L1063.67 91.1875L1067.2 94.714L1070.72 91.1875Z" fill="#726E6E" fill-opacity="0.23"/>
<path d="M1115.04 91.1875L1111.52 87.6611L1107.99 91.1875L1111.52 94.714L1115.04 91.1875Z" fill="#726E6E" fill-opacity="0.23"/>
<path d="M1159.36 91.1875L1155.84 87.6611L1152.31 91.1875L1155.84 94.714L1159.36 91.1875Z" fill="#726E6E" fill-opacity="0.23"/>
<path d="M1203.68 91.1875L1200.15 87.6611L1196.63 91.1875L1200.15 94.714L1203.68 91.1875Z" fill="#726E6E" fill-opacity="0.23"/>
<path d="M1248 91.1875L1244.47 87.6611L1240.95 91.1875L1244.47 94.714L1248 91.1875Z" fill="#726E6E" fill-opacity="0.23"/>
<path d="M450.251 135.518L446.725 131.992L443.2 135.518L446.725 139.045L450.251 135.518Z" fill="#726E6E" fill-opacity="0.23"/>
<path d="M494.571 135.518L491.045 131.992L487.519 135.518L491.045 139.045L494.571 135.518Z" fill="#726E6E" fill-opacity="0.23"/>
<path d="M538.89 135.518L535.364 131.992L531.839 135.518L535.364 139.045L538.89 135.518Z" fill="#726E6E" fill-opacity="0.23"/>
<path d="M583.209 135.518L579.684 131.992L576.158 135.518L579.684 139.045L583.209 135.518Z" fill="#726E6E" fill-opacity="0.23"/>
<path d="M627.529 135.518L624.003 131.992L620.478 135.518L624.003 139.045L627.529 135.518Z" fill="#726E6E" fill-opacity="0.23"/>
<path d="M671.848 135.518L668.322 131.992L664.797 135.518L668.322 139.045L671.848 135.518Z" fill="#726E6E" fill-opacity="0.23"/>
<path d="M716.167 135.518L712.642 131.992L709.116 135.518L712.642 139.045L716.167 135.518Z" fill="#726E6E" fill-opacity="0.23"/>
<path d="M760.487 135.518L756.961 131.992L753.435 135.518L756.961 139.045L760.487 135.518Z" fill="#726E6E" fill-opacity="0.23"/>
<path d="M804.806 135.518L801.281 131.992L797.755 135.518L801.281 139.045L804.806 135.518Z" fill="#726E6E" fill-opacity="0.23"/>
<path d="M849.126 135.518L845.6 131.992L842.075 135.518L845.6 139.045L849.126 135.518Z" fill="#726E6E" fill-opacity="0.23"/>
<path d="M893.445 135.518L889.919 131.992L886.394 135.518L889.919 139.045L893.445 135.518Z" fill="#726E6E" fill-opacity="0.23"/>
<path d="M937.764 135.518L934.239 131.992L930.713 135.518L934.239 139.045L937.764 135.518Z" fill="#726E6E" fill-opacity="0.23"/>
<path d="M982.084 135.518L978.558 131.992L975.033 135.518L978.558 139.045L982.084 135.518Z" fill="#726E6E" fill-opacity="0.23"/>
<path d="M1026.4 135.518L1022.88 131.992L1019.35 135.518L1022.88 139.045L1026.4 135.518Z" fill="#726E6E" fill-opacity="0.23"/>
<path d="M1070.72 135.518L1067.2 131.992L1063.67 135.518L1067.2 139.045L1070.72 135.518Z" fill="#726E6E" fill-opacity="0.23"/>
<path d="M1115.04 135.518L1111.52 131.992L1107.99 135.518L1111.52 139.045L1115.04 135.518Z" fill="#726E6E" fill-opacity="0.23"/>
<path d="M1159.36 135.518L1155.84 131.992L1152.31 135.518L1155.84 139.045L1159.36 135.518Z" fill="#726E6E" fill-opacity="0.23"/>
<path d="M1203.68 135.518L1200.15 131.992L1196.63 135.518L1200.15 139.045L1203.68 135.518Z" fill="#726E6E" fill-opacity="0.23"/>
<path d="M1248 135.518L1244.47 131.992L1240.95 135.518L1244.47 139.045L1248 135.518Z" fill="#726E6E" fill-opacity="0.23"/>
<path d="M450.251 179.848L446.725 176.322L443.2 179.848L446.725 183.375L450.251 179.848Z" fill="#726E6E" fill-opacity="0.23"/>
<path d="M494.571 179.848L491.045 176.322L487.519 179.848L491.045 183.375L494.571 179.848Z" fill="#726E6E" fill-opacity="0.23"/>
<path d="M538.89 179.848L535.364 176.322L531.839 179.848L535.364 183.375L538.89 179.848Z" fill="#726E6E" fill-opacity="0.23"/>
<path d="M583.209 179.848L579.684 176.322L576.158 179.848L579.684 183.375L583.209 179.848Z" fill="#726E6E" fill-opacity="0.23"/>
<path d="M627.529 179.848L624.003 176.322L620.478 179.848L624.003 183.375L627.529 179.848Z" fill="#726E6E" fill-opacity="0.23"/>
<path d="M671.848 179.848L668.322 176.322L664.797 179.848L668.322 183.375L671.848 179.848Z" fill="#726E6E" fill-opacity="0.23"/>
<path d="M716.167 179.848L712.642 176.322L709.116 179.848L712.642 183.375L716.167 179.848Z" fill="#726E6E" fill-opacity="0.23"/>
<path d="M760.487 179.848L756.961 176.322L753.435 179.848L756.961 183.375L760.487 179.848Z" fill="#726E6E" fill-opacity="0.23"/>
<path d="M804.806 179.848L801.281 176.322L797.755 179.848L801.281 183.375L804.806 179.848Z" fill="#726E6E" fill-opacity="0.23"/>
<path d="M849.126 179.848L845.6 176.322L842.075 179.848L845.6 183.375L849.126 179.848Z" fill="#726E6E" fill-opacity="0.23"/>
<path d="M893.445 179.848L889.919 176.322L886.394 179.848L889.919 183.375L893.445 179.848Z" fill="#726E6E" fill-opacity="0.23"/>
<path d="M937.764 179.848L934.239 176.322L930.713 179.848L934.239 183.375L937.764 179.848Z" fill="#726E6E" fill-opacity="0.23"/>
<path d="M982.084 179.848L978.558 176.322L975.033 179.848L978.558 183.375L982.084 179.848Z" fill="#726E6E" fill-opacity="0.23"/>
<path d="M1026.4 179.848L1022.88 176.322L1019.35 179.848L1022.88 183.375L1026.4 179.848Z" fill="#726E6E" fill-opacity="0.23"/>
<path d="M1070.72 179.848L1067.2 176.322L1063.67 179.848L1067.2 183.375L1070.72 179.848Z" fill="#726E6E" fill-opacity="0.23"/>
<path d="M1115.04 179.848L1111.52 176.322L1107.99 179.848L1111.52 183.375L1115.04 179.848Z" fill="#726E6E" fill-opacity="0.23"/>
<path d="M1159.36 179.848L1155.84 176.322L1152.31 179.848L1155.84 183.375L1159.36 179.848Z" fill="#726E6E" fill-opacity="0.23"/>
<path d="M1203.68 179.848L1200.15 176.322L1196.63 179.848L1200.15 183.375L1203.68 179.848Z" fill="#726E6E" fill-opacity="0.23"/>
<path d="M1248 179.848L1244.47 176.322L1240.95 179.848L1244.47 183.375L1248 179.848Z" fill="#726E6E" fill-opacity="0.23"/>
<path d="M450.251 224.179L446.725 220.652L443.2 224.179L446.725 227.705L450.251 224.179Z" fill="#726E6E" fill-opacity="0.23"/>
<path d="M494.571 224.179L491.045 220.652L487.519 224.179L491.045 227.705L494.571 224.179Z" fill="#726E6E" fill-opacity="0.23"/>
<path d="M538.89 224.179L535.364 220.652L531.839 224.179L535.364 227.705L538.89 224.179Z" fill="#726E6E" fill-opacity="0.23"/>
<path d="M583.209 224.179L579.684 220.652L576.158 224.179L579.684 227.705L583.209 224.179Z" fill="#726E6E" fill-opacity="0.23"/>
<path d="M627.529 224.179L624.003 220.652L620.478 224.179L624.003 227.705L627.529 224.179Z" fill="#726E6E" fill-opacity="0.23"/>
<path d="M671.848 224.179L668.322 220.652L664.797 224.179L668.322 227.705L671.848 224.179Z" fill="#726E6E" fill-opacity="0.23"/>
<path d="M716.167 224.179L712.642 220.652L709.116 224.179L712.642 227.705L716.167 224.179Z" fill="#726E6E" fill-opacity="0.23"/>
<path d="M760.487 224.179L756.961 220.652L753.435 224.179L756.961 227.705L760.487 224.179Z" fill="#726E6E" fill-opacity="0.23"/>
<path d="M804.806 224.179L801.281 220.652L797.755 224.179L801.281 227.705L804.806 224.179Z" fill="#726E6E" fill-opacity="0.23"/>
<path d="M849.126 224.179L845.6 220.652L842.075 224.179L845.6 227.705L849.126 224.179Z" fill="#726E6E" fill-opacity="0.23"/>
<path d="M893.445 224.179L889.919 220.652L886.394 224.179L889.919 227.705L893.445 224.179Z" fill="#726E6E" fill-opacity="0.23"/>
<path d="M937.764 224.179L934.239 220.652L930.713 224.179L934.239 227.705L937.764 224.179Z" fill="#726E6E" fill-opacity="0.23"/>
<path d="M982.084 224.179L978.558 220.652L975.033 224.179L978.558 227.705L982.084 224.179Z" fill="#726E6E" fill-opacity="0.23"/>
<path d="M1026.4 224.179L1022.88 220.652L1019.35 224.179L1022.88 227.705L1026.4 224.179Z" fill="#726E6E" fill-opacity="0.23"/>
<path d="M1070.72 224.179L1067.2 220.652L1063.67 224.179L1067.2 227.705L1070.72 224.179Z" fill="#726E6E" fill-opacity="0.23"/>
<path d="M1115.04 224.179L1111.52 220.652L1107.99 224.179L1111.52 227.705L1115.04 224.179Z" fill="#726E6E" fill-opacity="0.23"/>
<path d="M1159.36 224.179L1155.84 220.652L1152.31 224.179L1155.84 227.705L1159.36 224.179Z" fill="#726E6E" fill-opacity="0.23"/>
<path d="M1203.68 224.179L1200.15 220.652L1196.63 224.179L1200.15 227.705L1203.68 224.179Z" fill="#726E6E" fill-opacity="0.23"/>
<path d="M1248 224.179L1244.47 220.652L1240.95 224.179L1244.47 227.705L1248 224.179Z" fill="#726E6E" fill-opacity="0.23"/>
<path d="M450.251 268.509L446.725 264.983L443.2 268.509L446.725 272.036L450.251 268.509Z" fill="#726E6E" fill-opacity="0.23"/>
<path d="M494.571 268.509L491.045 264.983L487.519 268.509L491.045 272.036L494.571 268.509Z" fill="#726E6E" fill-opacity="0.23"/>
<path d="M538.89 268.509L535.364 264.983L531.839 268.509L535.364 272.036L538.89 268.509Z" fill="#726E6E" fill-opacity="0.23"/>
<path d="M583.209 268.509L579.684 264.983L576.158 268.509L579.684 272.036L583.209 268.509Z" fill="#726E6E" fill-opacity="0.23"/>
<path d="M627.529 268.509L624.003 264.983L620.478 268.509L624.003 272.036L627.529 268.509Z" fill="#726E6E" fill-opacity="0.23"/>
<path d="M671.848 268.509L668.322 264.983L664.797 268.509L668.322 272.036L671.848 268.509Z" fill="#726E6E" fill-opacity="0.23"/>
<path d="M716.167 268.509L712.642 264.983L709.116 268.509L712.642 272.036L716.167 268.509Z" fill="#726E6E" fill-opacity="0.23"/>
<path d="M760.487 268.509L756.961 264.983L753.435 268.509L756.961 272.036L760.487 268.509Z" fill="#726E6E" fill-opacity="0.23"/>
<path d="M804.806 268.509L801.281 264.983L797.755 268.509L801.281 272.036L804.806 268.509Z" fill="#726E6E" fill-opacity="0.23"/>
<path d="M849.126 268.509L845.6 264.983L842.075 268.509L845.6 272.036L849.126 268.509Z" fill="#726E6E" fill-opacity="0.23"/>
<path d="M893.445 268.509L889.919 264.983L886.394 268.509L889.919 272.036L893.445 268.509Z" fill="#726E6E" fill-opacity="0.23"/>
<path d="M937.764 268.509L934.239 264.983L930.713 268.509L934.239 272.036L937.764 268.509Z" fill="#726E6E" fill-opacity="0.23"/>
<path d="M982.084 268.509L978.558 264.983L975.033 268.509L978.558 272.036L982.084 268.509Z" fill="#726E6E" fill-opacity="0.23"/>
<path d="M1026.4 268.509L1022.88 264.983L1019.35 268.509L1022.88 272.036L1026.4 268.509Z" fill="#726E6E" fill-opacity="0.23"/>
<path d="M1070.72 268.509L1067.2 264.983L1063.67 268.509L1067.2 272.036L1070.72 268.509Z" fill="#726E6E" fill-opacity="0.23"/>
<path d="M1115.04 268.509L1111.52 264.983L1107.99 268.509L1111.52 272.036L1115.04 268.509Z" fill="#726E6E" fill-opacity="0.23"/>
<path d="M1159.36 268.509L1155.84 264.983L1152.31 268.509L1155.84 272.036L1159.36 268.509Z" fill="#726E6E" fill-opacity="0.23"/>
<path d="M1203.68 268.509L1200.15 264.983L1196.63 268.509L1200.15 272.036L1203.68 268.509Z" fill="#726E6E" fill-opacity="0.23"/>
<path d="M1248 268.509L1244.47 264.983L1240.95 268.509L1244.47 272.036L1248 268.509Z" fill="#726E6E" fill-opacity="0.23"/>
<path d="M450.251 312.839L446.725 309.312L443.2 312.839L446.725 316.365L450.251 312.839Z" fill="#726E6E" fill-opacity="0.23"/>
<path d="M494.571 312.839L491.045 309.312L487.519 312.839L491.045 316.365L494.571 312.839Z" fill="#726E6E" fill-opacity="0.23"/>
<path d="M538.89 312.839L535.364 309.312L531.839 312.839L535.364 316.365L538.89 312.839Z" fill="#726E6E" fill-opacity="0.23"/>
<path d="M583.209 312.839L579.684 309.312L576.158 312.839L579.684 316.365L583.209 312.839Z" fill="#726E6E" fill-opacity="0.23"/>
<path d="M627.529 312.839L624.003 309.312L620.478 312.839L624.003 316.365L627.529 312.839Z" fill="#726E6E" fill-opacity="0.23"/>
<path d="M671.848 312.839L668.322 309.312L664.797 312.839L668.322 316.365L671.848 312.839Z" fill="#726E6E" fill-opacity="0.23"/>
<path d="M716.167 312.839L712.642 309.312L709.116 312.839L712.642 316.365L716.167 312.839Z" fill="#726E6E" fill-opacity="0.23"/>
<path d="M760.487 312.839L756.961 309.312L753.435 312.839L756.961 316.365L760.487 312.839Z" fill="#726E6E" fill-opacity="0.23"/>
<path d="M804.806 312.839L801.281 309.312L797.755 312.839L801.281 316.365L804.806 312.839Z" fill="#726E6E" fill-opacity="0.23"/>
<path d="M849.126 312.839L845.6 309.312L842.075 312.839L845.6 316.365L849.126 312.839Z" fill="#726E6E" fill-opacity="0.23"/>
<path d="M893.445 312.839L889.919 309.312L886.394 312.839L889.919 316.365L893.445 312.839Z" fill="#726E6E" fill-opacity="0.23"/>
<path d="M937.764 312.839L934.239 309.312L930.713 312.839L934.239 316.365L937.764 312.839Z" fill="#726E6E" fill-opacity="0.23"/>
<path d="M982.084 312.839L978.558 309.312L975.033 312.839L978.558 316.365L982.084 312.839Z" fill="#726E6E" fill-opacity="0.23"/>
<path d="M1026.4 312.839L1022.88 309.312L1019.35 312.839L1022.88 316.365L1026.4 312.839Z" fill="#726E6E" fill-opacity="0.23"/>
<path d="M1070.72 312.839L1067.2 309.312L1063.67 312.839L1067.2 316.365L1070.72 312.839Z" fill="#726E6E" fill-opacity="0.23"/>
<path d="M1115.04 312.839L1111.52 309.312L1107.99 312.839L1111.52 316.365L1115.04 312.839Z" fill="#726E6E" fill-opacity="0.23"/>
<path d="M1159.36 312.839L1155.84 309.312L1152.31 312.839L1155.84 316.365L1159.36 312.839Z" fill="#726E6E" fill-opacity="0.23"/>
<path d="M1203.68 312.839L1200.15 309.312L1196.63 312.839L1200.15 316.365L1203.68 312.839Z" fill="#726E6E" fill-opacity="0.23"/>
<path d="M1248 312.839L1244.47 309.312L1240.95 312.839L1244.47 316.365L1248 312.839Z" fill="#726E6E" fill-opacity="0.23"/>
<path d="M450.251 357.17L446.725 353.643L443.2 357.17L446.725 360.696L450.251 357.17Z" fill="#726E6E" fill-opacity="0.23"/>
<path d="M494.571 357.17L491.045 353.643L487.519 357.17L491.045 360.696L494.571 357.17Z" fill="#726E6E" fill-opacity="0.23"/>
<path d="M538.89 357.17L535.364 353.643L531.839 357.17L535.364 360.696L538.89 357.17Z" fill="#726E6E" fill-opacity="0.23"/>
<path d="M583.209 357.17L579.684 353.643L576.158 357.17L579.684 360.696L583.209 357.17Z" fill="#726E6E" fill-opacity="0.23"/>
<path d="M627.529 357.17L624.003 353.643L620.478 357.17L624.003 360.696L627.529 357.17Z" fill="#726E6E" fill-opacity="0.23"/>
<path d="M671.848 357.17L668.322 353.643L664.797 357.17L668.322 360.696L671.848 357.17Z" fill="#726E6E" fill-opacity="0.23"/>
<path d="M716.167 357.17L712.642 353.643L709.116 357.17L712.642 360.696L716.167 357.17Z" fill="#726E6E" fill-opacity="0.23"/>
<path d="M760.487 357.17L756.961 353.643L753.435 357.17L756.961 360.696L760.487 357.17Z" fill="#726E6E" fill-opacity="0.23"/>
<path d="M804.806 357.17L801.281 353.643L797.755 357.17L801.281 360.696L804.806 357.17Z" fill="#726E6E" fill-opacity="0.23"/>
<path d="M849.126 357.17L845.6 353.643L842.075 357.17L845.6 360.696L849.126 357.17Z" fill="#726E6E" fill-opacity="0.23"/>
<path d="M893.445 357.17L889.919 353.643L886.394 357.17L889.919 360.696L893.445 357.17Z" fill="#726E6E" fill-opacity="0.23"/>
<path d="M937.764 357.17L934.239 353.643L930.713 357.17L934.239 360.696L937.764 357.17Z" fill="#726E6E" fill-opacity="0.23"/>
<path d="M982.084 357.17L978.558 353.643L975.033 357.17L978.558 360.696L982.084 357.17Z" fill="#726E6E" fill-opacity="0.23"/>
<path d="M1026.4 357.17L1022.88 353.643L1019.35 357.17L1022.88 360.696L1026.4 357.17Z" fill="#726E6E" fill-opacity="0.23"/>
<path d="M1070.72 357.17L1067.2 353.643L1063.67 357.17L1067.2 360.696L1070.72 357.17Z" fill="#726E6E" fill-opacity="0.23"/>
<path d="M1115.04 357.17L1111.52 353.643L1107.99 357.17L1111.52 360.696L1115.04 357.17Z" fill="#726E6E" fill-opacity="0.23"/>
<path d="M1159.36 357.17L1155.84 353.643L1152.31 357.17L1155.84 360.696L1159.36 357.17Z" fill="#726E6E" fill-opacity="0.23"/>
<path d="M1203.68 357.17L1200.15 353.643L1196.63 357.17L1200.15 360.696L1203.68 357.17Z" fill="#726E6E" fill-opacity="0.23"/>
<path d="M1248 357.17L1244.47 353.643L1240.95 357.17L1244.47 360.696L1248 357.17Z" fill="#726E6E" fill-opacity="0.23"/>
<path d="M450.251 401.5L446.725 397.974L443.2 401.5L446.725 405.027L450.251 401.5Z" fill="#726E6E" fill-opacity="0.23"/>
<path d="M494.571 401.5L491.045 397.974L487.519 401.5L491.045 405.027L494.571 401.5Z" fill="#726E6E" fill-opacity="0.23"/>
<path d="M538.89 401.5L535.364 397.974L531.839 401.5L535.364 405.027L538.89 401.5Z" fill="#726E6E" fill-opacity="0.23"/>
<path d="M583.209 401.5L579.684 397.974L576.158 401.5L579.684 405.027L583.209 401.5Z" fill="#726E6E" fill-opacity="0.23"/>
<path d="M627.529 401.5L624.003 397.974L620.478 401.5L624.003 405.027L627.529 401.5Z" fill="#726E6E" fill-opacity="0.23"/>
<path d="M671.848 401.5L668.322 397.974L664.797 401.5L668.322 405.027L671.848 401.5Z" fill="#726E6E" fill-opacity="0.23"/>
<path d="M716.167 401.5L712.642 397.974L709.116 401.5L712.642 405.027L716.167 401.5Z" fill="#726E6E" fill-opacity="0.23"/>
<path d="M760.487 401.5L756.961 397.974L753.435 401.5L756.961 405.027L760.487 401.5Z" fill="#726E6E" fill-opacity="0.23"/>
<path d="M804.806 401.5L801.281 397.974L797.755 401.5L801.281 405.027L804.806 401.5Z" fill="#726E6E" fill-opacity="0.23"/>
<path d="M849.126 401.5L845.6 397.974L842.075 401.5L845.6 405.027L849.126 401.5Z" fill="#726E6E" fill-opacity="0.23"/>
<path d="M893.445 401.5L889.919 397.974L886.394 401.5L889.919 405.027L893.445 401.5Z" fill="#726E6E" fill-opacity="0.23"/>
<path d="M937.764 401.5L934.239 397.974L930.713 401.5L934.239 405.027L937.764 401.5Z" fill="#726E6E" fill-opacity="0.23"/>
<path d="M982.084 401.5L978.558 397.974L975.033 401.5L978.558 405.027L982.084 401.5Z" fill="#726E6E" fill-opacity="0.23"/>
<path d="M1026.4 401.5L1022.88 397.974L1019.35 401.5L1022.88 405.027L1026.4 401.5Z" fill="#726E6E" fill-opacity="0.23"/>
<path d="M1070.72 401.5L1067.2 397.974L1063.67 401.5L1067.2 405.027L1070.72 401.5Z" fill="#726E6E" fill-opacity="0.23"/>
<path d="M1115.04 401.5L1111.52 397.974L1107.99 401.5L1111.52 405.027L1115.04 401.5Z" fill="#726E6E" fill-opacity="0.23"/>
<path d="M1159.36 401.5L1155.84 397.974L1152.31 401.5L1155.84 405.027L1159.36 401.5Z" fill="#726E6E" fill-opacity="0.23"/>
<path d="M1203.68 401.5L1200.15 397.974L1196.63 401.5L1200.15 405.027L1203.68 401.5Z" fill="#726E6E" fill-opacity="0.23"/>
<path d="M1248 401.5L1244.47 397.974L1240.95 401.5L1244.47 405.027L1248 401.5Z" fill="#726E6E" fill-opacity="0.23"/>
<path d="M450.251 445.83L446.725 442.304L443.2 445.83L446.725 449.357L450.251 445.83Z" fill="#726E6E" fill-opacity="0.23"/>
<path d="M494.571 445.83L491.045 442.304L487.519 445.83L491.045 449.357L494.571 445.83Z" fill="#726E6E" fill-opacity="0.23"/>
<path d="M538.89 445.83L535.364 442.304L531.839 445.83L535.364 449.357L538.89 445.83Z" fill="#726E6E" fill-opacity="0.23"/>
<path d="M583.209 445.83L579.684 442.304L576.158 445.83L579.684 449.357L583.209 445.83Z" fill="#726E6E" fill-opacity="0.23"/>
<path d="M627.529 445.83L624.003 442.304L620.478 445.83L624.003 449.357L627.529 445.83Z" fill="#726E6E" fill-opacity="0.23"/>
<path d="M671.848 445.83L668.322 442.304L664.797 445.83L668.322 449.357L671.848 445.83Z" fill="#726E6E" fill-opacity="0.23"/>
<path d="M716.167 445.83L712.642 442.304L709.116 445.83L712.642 449.357L716.167 445.83Z" fill="#726E6E" fill-opacity="0.23"/>
<path d="M760.487 445.83L756.961 442.304L753.435 445.83L756.961 449.357L760.487 445.83Z" fill="#726E6E" fill-opacity="0.23"/>
<path d="M804.806 445.83L801.281 442.304L797.755 445.83L801.281 449.357L804.806 445.83Z" fill="#726E6E" fill-opacity="0.23"/>
<path d="M849.126 445.83L845.6 442.304L842.075 445.83L845.6 449.357L849.126 445.83Z" fill="#726E6E" fill-opacity="0.23"/>
<path d="M893.445 445.83L889.919 442.304L886.394 445.83L889.919 449.357L893.445 445.83Z" fill="#726E6E" fill-opacity="0.23"/>
<path d="M937.764 445.83L934.239 442.304L930.713 445.83L934.239 449.357L937.764 445.83Z" fill="#726E6E" fill-opacity="0.23"/>
<path d="M982.084 445.83L978.558 442.304L975.033 445.83L978.558 449.357L982.084 445.83Z" fill="#726E6E" fill-opacity="0.23"/>
<path d="M1026.4 445.83L1022.88 442.304L1019.35 445.83L1022.88 449.357L1026.4 445.83Z" fill="#726E6E" fill-opacity="0.23"/>
<path d="M1070.72 445.83L1067.2 442.304L1063.67 445.83L1067.2 449.357L1070.72 445.83Z" fill="#726E6E" fill-opacity="0.23"/>
<path d="M1115.04 445.83L1111.52 442.304L1107.99 445.83L1111.52 449.357L1115.04 445.83Z" fill="#726E6E" fill-opacity="0.23"/>
<path d="M1159.36 445.83L1155.84 442.304L1152.31 445.83L1155.84 449.357L1159.36 445.83Z" fill="#726E6E" fill-opacity="0.23"/>
<path d="M1203.68 445.83L1200.15 442.304L1196.63 445.83L1200.15 449.357L1203.68 445.83Z" fill="#726E6E" fill-opacity="0.23"/>
<path d="M1248 445.83L1244.47 442.304L1240.95 445.83L1244.47 449.357L1248 445.83Z" fill="#726E6E" fill-opacity="0.23"/>
<path d="M450.251 490.16L446.725 486.634L443.2 490.16L446.725 493.687L450.251 490.16Z" fill="#726E6E" fill-opacity="0.23"/>
<path d="M494.571 490.16L491.045 486.634L487.519 490.16L491.045 493.687L494.571 490.16Z" fill="#726E6E" fill-opacity="0.23"/>
<path d="M538.89 490.16L535.364 486.634L531.839 490.16L535.364 493.687L538.89 490.16Z" fill="#726E6E" fill-opacity="0.23"/>
<path d="M583.209 490.16L579.684 486.634L576.158 490.16L579.684 493.687L583.209 490.16Z" fill="#726E6E" fill-opacity="0.23"/>
<path d="M627.529 490.16L624.003 486.634L620.478 490.16L624.003 493.687L627.529 490.16Z" fill="#726E6E" fill-opacity="0.23"/>
<path d="M671.848 490.16L668.322 486.634L664.797 490.16L668.322 493.687L671.848 490.16Z" fill="#726E6E" fill-opacity="0.23"/>
<path d="M716.167 490.16L712.642 486.634L709.116 490.16L712.642 493.687L716.167 490.16Z" fill="#726E6E" fill-opacity="0.23"/>
<path d="M760.487 490.16L756.961 486.634L753.435 490.16L756.961 493.687L760.487 490.16Z" fill="#726E6E" fill-opacity="0.23"/>
<path d="M804.806 490.16L801.281 486.634L797.755 490.16L801.281 493.687L804.806 490.16Z" fill="#726E6E" fill-opacity="0.23"/>
<path d="M849.126 490.16L845.6 486.634L842.075 490.16L845.6 493.687L849.126 490.16Z" fill="#726E6E" fill-opacity="0.23"/>
<path d="M893.445 490.16L889.919 486.634L886.394 490.16L889.919 493.687L893.445 490.16Z" fill="#726E6E" fill-opacity="0.23"/>
<path d="M937.764 490.16L934.239 486.634L930.713 490.16L934.239 493.687L937.764 490.16Z" fill="#726E6E" fill-opacity="0.23"/>
<path d="M982.084 490.16L978.558 486.634L975.033 490.16L978.558 493.687L982.084 490.16Z" fill="#726E6E" fill-opacity="0.23"/>
<path d="M1026.4 490.16L1022.88 486.634L1019.35 490.16L1022.88 493.687L1026.4 490.16Z" fill="#726E6E" fill-opacity="0.23"/>
<path d="M1070.72 490.16L1067.2 486.634L1063.67 490.16L1067.2 493.687L1070.72 490.16Z" fill="#726E6E" fill-opacity="0.23"/>
<path d="M1115.04 490.16L1111.52 486.634L1107.99 490.16L1111.52 493.687L1115.04 490.16Z" fill="#726E6E" fill-opacity="0.23"/>
<path d="M1159.36 490.16L1155.84 486.634L1152.31 490.16L1155.84 493.687L1159.36 490.16Z" fill="#726E6E" fill-opacity="0.23"/>
<path d="M1203.68 490.16L1200.15 486.634L1196.63 490.16L1200.15 493.687L1203.68 490.16Z" fill="#726E6E" fill-opacity="0.23"/>
<path d="M1248 490.16L1244.47 486.634L1240.95 490.16L1244.47 493.687L1248 490.16Z" fill="#726E6E" fill-opacity="0.23"/>
<path d="M450.251 534.491L446.725 530.965L443.2 534.491L446.725 538.018L450.251 534.491Z" fill="#726E6E" fill-opacity="0.23"/>
<path d="M494.571 534.491L491.045 530.965L487.519 534.491L491.045 538.018L494.571 534.491Z" fill="#726E6E" fill-opacity="0.23"/>
<path d="M538.89 534.491L535.364 530.965L531.839 534.491L535.364 538.018L538.89 534.491Z" fill="#726E6E" fill-opacity="0.23"/>
<path d="M583.209 534.491L579.684 530.965L576.158 534.491L579.684 538.018L583.209 534.491Z" fill="#726E6E" fill-opacity="0.23"/>
<path d="M627.529 534.491L624.003 530.965L620.478 534.491L624.003 538.018L627.529 534.491Z" fill="#726E6E" fill-opacity="0.23"/>
<path d="M671.848 534.491L668.322 530.965L664.797 534.491L668.322 538.018L671.848 534.491Z" fill="#726E6E" fill-opacity="0.23"/>
<path d="M716.167 534.491L712.642 530.965L709.116 534.491L712.642 538.018L716.167 534.491Z" fill="#726E6E" fill-opacity="0.23"/>
<path d="M760.487 534.491L756.961 530.965L753.435 534.491L756.961 538.018L760.487 534.491Z" fill="#726E6E" fill-opacity="0.23"/>
<path d="M804.806 534.491L801.281 530.965L797.755 534.491L801.281 538.018L804.806 534.491Z" fill="#726E6E" fill-opacity="0.23"/>
<path d="M849.126 534.491L845.6 530.965L842.075 534.491L845.6 538.018L849.126 534.491Z" fill="#726E6E" fill-opacity="0.23"/>
<path d="M893.445 534.491L889.919 530.965L886.394 534.491L889.919 538.018L893.445 534.491Z" fill="#726E6E" fill-opacity="0.23"/>
<path d="M937.764 534.491L934.239 530.965L930.713 534.491L934.239 538.018L937.764 534.491Z" fill="#726E6E" fill-opacity="0.23"/>
<path d="M982.084 534.491L978.558 530.965L975.033 534.491L978.558 538.018L982.084 534.491Z" fill="#726E6E" fill-opacity="0.23"/>
<path d="M1026.4 534.491L1022.88 530.965L1019.35 534.491L1022.88 538.018L1026.4 534.491Z" fill="#726E6E" fill-opacity="0.23"/>
<path d="M1070.72 534.491L1067.2 530.965L1063.67 534.491L1067.2 538.018L1070.72 534.491Z" fill="#726E6E" fill-opacity="0.23"/>
<path d="M1115.04 534.491L1111.52 530.965L1107.99 534.491L1111.52 538.018L1115.04 534.491Z" fill="#726E6E" fill-opacity="0.23"/>
<path d="M1159.36 534.491L1155.84 530.965L1152.31 534.491L1155.84 538.018L1159.36 534.491Z" fill="#726E6E" fill-opacity="0.23"/>
<path d="M1203.68 534.491L1200.15 530.965L1196.63 534.491L1200.15 538.018L1203.68 534.491Z" fill="#726E6E" fill-opacity="0.23"/>
<path d="M1248 534.491L1244.47 530.965L1240.95 534.491L1244.47 538.018L1248 534.491Z" fill="#726E6E" fill-opacity="0.23"/>
<path d="M450.251 578.821L446.725 575.295L443.2 578.821L446.725 582.348L450.251 578.821Z" fill="#726E6E" fill-opacity="0.23"/>
<path d="M494.571 578.821L491.045 575.295L487.519 578.821L491.045 582.348L494.571 578.821Z" fill="#726E6E" fill-opacity="0.23"/>
<path d="M538.89 578.821L535.364 575.295L531.839 578.821L535.364 582.348L538.89 578.821Z" fill="#726E6E" fill-opacity="0.23"/>
<path d="M583.209 578.821L579.684 575.295L576.158 578.821L579.684 582.348L583.209 578.821Z" fill="#726E6E" fill-opacity="0.23"/>
<path d="M627.529 578.821L624.003 575.295L620.478 578.821L624.003 582.348L627.529 578.821Z" fill="#726E6E" fill-opacity="0.23"/>
<path d="M671.848 578.821L668.322 575.295L664.797 578.821L668.322 582.348L671.848 578.821Z" fill="#726E6E" fill-opacity="0.23"/>
<path d="M716.167 578.821L712.642 575.295L709.116 578.821L712.642 582.348L716.167 578.821Z" fill="#726E6E" fill-opacity="0.23"/>
<path d="M760.487 578.821L756.961 575.295L753.435 578.821L756.961 582.348L760.487 578.821Z" fill="#726E6E" fill-opacity="0.23"/>
<path d="M804.806 578.821L801.281 575.295L797.755 578.821L801.281 582.348L804.806 578.821Z" fill="#726E6E" fill-opacity="0.23"/>
<path d="M849.126 578.821L845.6 575.295L842.075 578.821L845.6 582.348L849.126 578.821Z" fill="#726E6E" fill-opacity="0.23"/>
<path d="M893.445 578.821L889.919 575.295L886.394 578.821L889.919 582.348L893.445 578.821Z" fill="#726E6E" fill-opacity="0.23"/>
<path d="M937.764 578.821L934.239 575.295L930.713 578.821L934.239 582.348L937.764 578.821Z" fill="#726E6E" fill-opacity="0.23"/>
<path d="M982.084 578.821L978.558 575.295L975.033 578.821L978.558 582.348L982.084 578.821Z" fill="#726E6E" fill-opacity="0.23"/>
<path d="M1026.4 578.821L1022.88 575.295L1019.35 578.821L1022.88 582.348L1026.4 578.821Z" fill="#726E6E" fill-opacity="0.23"/>
<path d="M1070.72 578.821L1067.2 575.295L1063.67 578.821L1067.2 582.348L1070.72 578.821Z" fill="#726E6E" fill-opacity="0.23"/>
<path d="M1115.04 578.821L1111.52 575.295L1107.99 578.821L1111.52 582.348L1115.04 578.821Z" fill="#726E6E" fill-opacity="0.23"/>
<path d="M1159.36 578.821L1155.84 575.295L1152.31 578.821L1155.84 582.348L1159.36 578.821Z" fill="#726E6E" fill-opacity="0.23"/>
<path d="M1203.68 578.821L1200.15 575.295L1196.63 578.821L1200.15 582.348L1203.68 578.821Z" fill="#726E6E" fill-opacity="0.23"/>
<path d="M1248 578.821L1244.47 575.295L1240.95 578.821L1244.47 582.348L1248 578.821Z" fill="#726E6E" fill-opacity="0.23"/>
<path d="M450.251 623.151L446.725 619.625L443.2 623.151L446.725 626.678L450.251 623.151Z" fill="#726E6E" fill-opacity="0.23"/>
<path d="M494.571 623.151L491.045 619.625L487.519 623.151L491.045 626.678L494.571 623.151Z" fill="#726E6E" fill-opacity="0.23"/>
<path d="M538.89 623.151L535.364 619.625L531.839 623.151L535.364 626.678L538.89 623.151Z" fill="#726E6E" fill-opacity="0.23"/>
<path d="M583.209 623.151L579.684 619.625L576.158 623.151L579.684 626.678L583.209 623.151Z" fill="#726E6E" fill-opacity="0.23"/>
<path d="M627.529 623.151L624.003 619.625L620.478 623.151L624.003 626.678L627.529 623.151Z" fill="#726E6E" fill-opacity="0.23"/>
<path d="M671.848 623.151L668.322 619.625L664.797 623.151L668.322 626.678L671.848 623.151Z" fill="#726E6E" fill-opacity="0.23"/>
<path d="M716.167 623.151L712.642 619.625L709.116 623.151L712.642 626.678L716.167 623.151Z" fill="#726E6E" fill-opacity="0.23"/>
<path d="M760.487 623.151L756.961 619.625L753.435 623.151L756.961 626.678L760.487 623.151Z" fill="#726E6E" fill-opacity="0.23"/>
<path d="M804.806 623.151L801.281 619.625L797.755 623.151L801.281 626.678L804.806 623.151Z" fill="#726E6E" fill-opacity="0.23"/>
<path d="M849.126 623.151L845.6 619.625L842.075 623.151L845.6 626.678L849.126 623.151Z" fill="#726E6E" fill-opacity="0.23"/>
<path d="M893.445 623.151L889.919 619.625L886.394 623.151L889.919 626.678L893.445 623.151Z" fill="#726E6E" fill-opacity="0.23"/>
<path d="M937.764 623.151L934.239 619.625L930.713 623.151L934.239 626.678L937.764 623.151Z" fill="#726E6E" fill-opacity="0.23"/>
<path d="M982.084 623.151L978.558 619.625L975.033 623.151L978.558 626.678L982.084 623.151Z" fill="#726E6E" fill-opacity="0.23"/>
<path d="M1026.4 623.151L1022.88 619.625L1019.35 623.151L1022.88 626.678L1026.4 623.151Z" fill="#726E6E" fill-opacity="0.23"/>
<path d="M1070.72 623.151L1067.2 619.625L1063.67 623.151L1067.2 626.678L1070.72 623.151Z" fill="#726E6E" fill-opacity="0.23"/>
<path d="M1115.04 623.151L1111.52 619.625L1107.99 623.151L1111.52 626.678L1115.04 623.151Z" fill="#726E6E" fill-opacity="0.23"/>
<path d="M1159.36 623.151L1155.84 619.625L1152.31 623.151L1155.84 626.678L1159.36 623.151Z" fill="#726E6E" fill-opacity="0.23"/>
<path d="M1203.68 623.151L1200.15 619.625L1196.63 623.151L1200.15 626.678L1203.68 623.151Z" fill="#726E6E" fill-opacity="0.23"/>
<path d="M1248 623.151L1244.47 619.625L1240.95 623.151L1244.47 626.678L1248 623.151Z" fill="#726E6E" fill-opacity="0.23"/>
<path d="M450.251 667.482L446.725 663.956L443.2 667.482L446.725 671.009L450.251 667.482Z" fill="#726E6E" fill-opacity="0.23"/>
<path d="M494.571 667.482L491.045 663.956L487.519 667.482L491.045 671.009L494.571 667.482Z" fill="#726E6E" fill-opacity="0.23"/>
<path d="M538.89 667.482L535.364 663.956L531.839 667.482L535.364 671.009L538.89 667.482Z" fill="#726E6E" fill-opacity="0.23"/>
<path d="M583.209 667.482L579.684 663.956L576.158 667.482L579.684 671.009L583.209 667.482Z" fill="#726E6E" fill-opacity="0.23"/>
<path d="M627.529 667.482L624.003 663.956L620.478 667.482L624.003 671.009L627.529 667.482Z" fill="#726E6E" fill-opacity="0.23"/>
<path d="M671.848 667.482L668.322 663.956L664.797 667.482L668.322 671.009L671.848 667.482Z" fill="#726E6E" fill-opacity="0.23"/>
<path d="M716.167 667.482L712.642 663.956L709.116 667.482L712.642 671.009L716.167 667.482Z" fill="#726E6E" fill-opacity="0.23"/>
<path d="M760.487 667.482L756.961 663.956L753.435 667.482L756.961 671.009L760.487 667.482Z" fill="#726E6E" fill-opacity="0.23"/>
<path d="M804.806 667.482L801.281 663.956L797.755 667.482L801.281 671.009L804.806 667.482Z" fill="#726E6E" fill-opacity="0.23"/>
<path d="M849.126 667.482L845.6 663.956L842.075 667.482L845.6 671.009L849.126 667.482Z" fill="#726E6E" fill-opacity="0.23"/>
<path d="M893.445 667.482L889.919 663.956L886.394 667.482L889.919 671.009L893.445 667.482Z" fill="#726E6E" fill-opacity="0.23"/>
<path d="M937.764 667.482L934.239 663.956L930.713 667.482L934.239 671.009L937.764 667.482Z" fill="#726E6E" fill-opacity="0.23"/>
<path d="M982.084 667.482L978.558 663.956L975.033 667.482L978.558 671.009L982.084 667.482Z" fill="#726E6E" fill-opacity="0.23"/>
<path d="M1026.4 667.482L1022.88 663.956L1019.35 667.482L1022.88 671.009L1026.4 667.482Z" fill="#726E6E" fill-opacity="0.23"/>
<path d="M1070.72 667.482L1067.2 663.956L1063.67 667.482L1067.2 671.009L1070.72 667.482Z" fill="#726E6E" fill-opacity="0.23"/>
<path d="M1115.04 667.482L1111.52 663.956L1107.99 667.482L1111.52 671.009L1115.04 667.482Z" fill="#726E6E" fill-opacity="0.23"/>
<path d="M1159.36 667.482L1155.84 663.956L1152.31 667.482L1155.84 671.009L1159.36 667.482Z" fill="#726E6E" fill-opacity="0.23"/>
<path d="M1203.68 667.482L1200.15 663.956L1196.63 667.482L1200.15 671.009L1203.68 667.482Z" fill="#726E6E" fill-opacity="0.23"/>
<path d="M1248 667.482L1244.47 663.956L1240.95 667.482L1244.47 671.009L1248 667.482Z" fill="#726E6E" fill-opacity="0.23"/>
<path d="M450.251 711.812L446.725 708.286L443.2 711.812L446.725 715.339L450.251 711.812Z" fill="#726E6E" fill-opacity="0.23"/>
<path d="M494.571 711.812L491.045 708.286L487.519 711.812L491.045 715.339L494.571 711.812Z" fill="#726E6E" fill-opacity="0.23"/>
<path d="M538.89 711.812L535.364 708.286L531.839 711.812L535.364 715.339L538.89 711.812Z" fill="#726E6E" fill-opacity="0.23"/>
<path d="M583.209 711.812L579.684 708.286L576.158 711.812L579.684 715.339L583.209 711.812Z" fill="#726E6E" fill-opacity="0.23"/>
<path d="M627.529 711.812L624.003 708.286L620.478 711.812L624.003 715.339L627.529 711.812Z" fill="#726E6E" fill-opacity="0.23"/>
<path d="M671.848 711.812L668.322 708.286L664.797 711.812L668.322 715.339L671.848 711.812Z" fill="#726E6E" fill-opacity="0.23"/>
<path d="M716.167 711.812L712.642 708.286L709.116 711.812L712.642 715.339L716.167 711.812Z" fill="#726E6E" fill-opacity="0.23"/>
<path d="M760.487 711.812L756.961 708.286L753.435 711.812L756.961 715.339L760.487 711.812Z" fill="#726E6E" fill-opacity="0.23"/>
<path d="M804.806 711.812L801.281 708.286L797.755 711.812L801.281 715.339L804.806 711.812Z" fill="#726E6E" fill-opacity="0.23"/>
<path d="M849.126 711.812L845.6 708.286L842.075 711.812L845.6 715.339L849.126 711.812Z" fill="#726E6E" fill-opacity="0.23"/>
<path d="M893.445 711.812L889.919 708.286L886.394 711.812L889.919 715.339L893.445 711.812Z" fill="#726E6E" fill-opacity="0.23"/>
<path d="M937.764 711.812L934.239 708.286L930.713 711.812L934.239 715.339L937.764 711.812Z" fill="#726E6E" fill-opacity="0.23"/>
<path d="M982.084 711.812L978.558 708.286L975.033 711.812L978.558 715.339L982.084 711.812Z" fill="#726E6E" fill-opacity="0.23"/>
<path d="M1026.4 711.812L1022.88 708.286L1019.35 711.812L1022.88 715.339L1026.4 711.812Z" fill="#726E6E" fill-opacity="0.23"/>
<path d="M1070.72 711.812L1067.2 708.286L1063.67 711.812L1067.2 715.339L1070.72 711.812Z" fill="#726E6E" fill-opacity="0.23"/>
<path d="M1115.04 711.812L1111.52 708.286L1107.99 711.812L1111.52 715.339L1115.04 711.812Z" fill="#726E6E" fill-opacity="0.23"/>
<path d="M1159.36 711.812L1155.84 708.286L1152.31 711.812L1155.84 715.339L1159.36 711.812Z" fill="#726E6E" fill-opacity="0.23"/>
<path d="M1203.68 711.812L1200.15 708.286L1196.63 711.812L1200.15 715.339L1203.68 711.812Z" fill="#726E6E" fill-opacity="0.23"/>
<path d="M1248 711.812L1244.47 708.286L1240.95 711.812L1244.47 715.339L1248 711.812Z" fill="#726E6E" fill-opacity="0.23"/>
<path d="M450.251 756.142L446.725 752.616L443.2 756.142L446.725 759.669L450.251 756.142Z" fill="#726E6E" fill-opacity="0.23"/>
<path d="M494.571 756.142L491.045 752.616L487.519 756.142L491.045 759.669L494.571 756.142Z" fill="#726E6E" fill-opacity="0.23"/>
<path d="M538.89 756.142L535.364 752.616L531.839 756.142L535.364 759.669L538.89 756.142Z" fill="#726E6E" fill-opacity="0.23"/>
<path d="M583.209 756.142L579.684 752.616L576.158 756.142L579.684 759.669L583.209 756.142Z" fill="#726E6E" fill-opacity="0.23"/>
<path d="M627.529 756.142L624.003 752.616L620.478 756.142L624.003 759.669L627.529 756.142Z" fill="#726E6E" fill-opacity="0.23"/>
<path d="M671.848 756.142L668.322 752.616L664.797 756.142L668.322 759.669L671.848 756.142Z" fill="#726E6E" fill-opacity="0.23"/>
<path d="M716.167 756.142L712.642 752.616L709.116 756.142L712.642 759.669L716.167 756.142Z" fill="#726E6E" fill-opacity="0.23"/>
<path d="M760.487 756.142L756.961 752.616L753.435 756.142L756.961 759.669L760.487 756.142Z" fill="#726E6E" fill-opacity="0.23"/>
<path d="M804.806 756.142L801.281 752.616L797.755 756.142L801.281 759.669L804.806 756.142Z" fill="#726E6E" fill-opacity="0.23"/>
<path d="M849.126 756.142L845.6 752.616L842.075 756.142L845.6 759.669L849.126 756.142Z" fill="#726E6E" fill-opacity="0.23"/>
<path d="M893.445 756.142L889.919 752.616L886.394 756.142L889.919 759.669L893.445 756.142Z" fill="#726E6E" fill-opacity="0.23"/>
<path d="M937.764 756.142L934.239 752.616L930.713 756.142L934.239 759.669L937.764 756.142Z" fill="#726E6E" fill-opacity="0.23"/>
<path d="M982.084 756.142L978.558 752.616L975.033 756.142L978.558 759.669L982.084 756.142Z" fill="#726E6E" fill-opacity="0.23"/>
<path d="M1026.4 756.142L1022.88 752.616L1019.35 756.142L1022.88 759.669L1026.4 756.142Z" fill="#726E6E" fill-opacity="0.23"/>
<path d="M1070.72 756.142L1067.2 752.616L1063.67 756.142L1067.2 759.669L1070.72 756.142Z" fill="#726E6E" fill-opacity="0.23"/>
<path d="M1115.04 756.142L1111.52 752.616L1107.99 756.142L1111.52 759.669L1115.04 756.142Z" fill="#726E6E" fill-opacity="0.23"/>
<path d="M1159.36 756.142L1155.84 752.616L1152.31 756.142L1155.84 759.669L1159.36 756.142Z" fill="#726E6E" fill-opacity="0.23"/>
<path d="M1203.68 756.142L1200.15 752.616L1196.63 756.142L1200.15 759.669L1203.68 756.142Z" fill="#726E6E" fill-opacity="0.23"/>
<path d="M1248 756.142L1244.47 752.616L1240.95 756.142L1244.47 759.669L1248 756.142Z" fill="#726E6E" fill-opacity="0.23"/>
<path d="M450.251 800.473L446.725 796.947L443.2 800.473L446.725 804L450.251 800.473Z" fill="#726E6E" fill-opacity="0.23"/>
<path d="M494.571 800.473L491.045 796.947L487.519 800.473L491.045 804L494.571 800.473Z" fill="#726E6E" fill-opacity="0.23"/>
<path d="M538.89 800.473L535.364 796.947L531.839 800.473L535.364 804L538.89 800.473Z" fill="#726E6E" fill-opacity="0.23"/>
<path d="M583.209 800.473L579.684 796.947L576.158 800.473L579.684 804L583.209 800.473Z" fill="#726E6E" fill-opacity="0.23"/>
<path d="M627.529 800.473L624.003 796.947L620.478 800.473L624.003 804L627.529 800.473Z" fill="#726E6E" fill-opacity="0.23"/>
<path d="M671.848 800.473L668.322 796.947L664.797 800.473L668.322 804L671.848 800.473Z" fill="#726E6E" fill-opacity="0.23"/>
<path d="M716.167 800.473L712.642 796.947L709.116 800.473L712.642 804L716.167 800.473Z" fill="#726E6E" fill-opacity="0.23"/>
<path d="M760.487 800.473L756.961 796.947L753.435 800.473L756.961 804L760.487 800.473Z" fill="#726E6E" fill-opacity="0.23"/>
<path d="M804.806 800.473L801.281 796.947L797.755 800.473L801.281 804L804.806 800.473Z" fill="#726E6E" fill-opacity="0.23"/>
<path d="M849.126 800.473L845.6 796.947L842.075 800.473L845.6 804L849.126 800.473Z" fill="#726E6E" fill-opacity="0.23"/>
<path d="M893.445 800.473L889.919 796.947L886.394 800.473L889.919 804L893.445 800.473Z" fill="#726E6E" fill-opacity="0.23"/>
<path d="M937.764 800.473L934.239 796.947L930.713 800.473L934.239 804L937.764 800.473Z" fill="#726E6E" fill-opacity="0.23"/>
<path d="M982.084 800.473L978.558 796.947L975.033 800.473L978.558 804L982.084 800.473Z" fill="#726E6E" fill-opacity="0.23"/>
<path d="M1026.4 800.473L1022.88 796.947L1019.35 800.473L1022.88 804L1026.4 800.473Z" fill="#726E6E" fill-opacity="0.23"/>
<path d="M1070.72 800.473L1067.2 796.947L1063.67 800.473L1067.2 804L1070.72 800.473Z" fill="#726E6E" fill-opacity="0.23"/>
<path d="M1115.04 800.473L1111.52 796.947L1107.99 800.473L1111.52 804L1115.04 800.473Z" fill="#726E6E" fill-opacity="0.23"/>
<path d="M1159.36 800.473L1155.84 796.947L1152.31 800.473L1155.84 804L1159.36 800.473Z" fill="#726E6E" fill-opacity="0.23"/>
<path d="M1203.68 800.473L1200.15 796.947L1196.63 800.473L1200.15 804L1203.68 800.473Z" fill="#726E6E" fill-opacity="0.23"/>
<path d="M1248 800.473L1244.47 796.947L1240.95 800.473L1244.47 804L1248 800.473Z" fill="#726E6E" fill-opacity="0.23"/>
</svg>
